<svg xmlns="http://www.w3.org/2000/svg" xmlns:xlink="http://www.w3.org/1999/xlink" contentStyleType="text/css" data-diagram-type="CLASS" height="979px" preserveAspectRatio="none" style="width:1369px;height:979px;background:#FFFFFF;" version="1.1" viewBox="0 0 1369 979" width="1369px" zoomAndPan="magnify"><?plantuml 1.2026.3beta4?><defs/><g><!--cluster Core Layer (B?t kh? x?m ph?m)--><g class="cluster" data-qualified-name="Core Layer .B.t kh. x.m ph.m." data-source-line="8" id="ent0002"><rect fill="#FFFFFF" height="953.81" rx="2.5" ry="2.5" style="stroke:#000000;stroke-width:1;" width="1343" x="12" y="12"/><text fill="#000000" font-family="Verdana" font-size="14" font-weight="700" lengthAdjust="spacing" textLength="249.9766" x="558.5117" y="26.9951">Core Layer (B&#7845;t kh&#7843; x&#226;m ph&#7841;m)</text></g><!--cluster Interfaces--><g class="cluster" data-qualified-name="Core Layer .B.t kh. x.m ph.m..Interfaces" data-source-line="10" id="ent0003"><rect fill="#FDFEFE" height="262.99" rx="2.5" ry="2.5" style="stroke:#000000;stroke-width:1;" width="516" x="432" y="55"/><text fill="#000000" font-family="Verdana" font-size="14" font-weight="700" lengthAdjust="spacing" textLength="79.9326" x="650.0337" y="69.9951">Interfaces</text></g><!--cluster Entities & Models--><g class="cluster" data-qualified-name="Core Layer .B.t kh. x.m ph.m..Entities . Models" data-source-line="23" id="ent0008"><rect fill="#F9EBEA" height="594.82" rx="2.5" ry="2.5" style="stroke:#000000;stroke-width:1;" width="1295" x="36" y="346.99"/><text fill="#000000" font-family="Verdana" font-size="14" font-weight="700" lengthAdjust="spacing" textLength="138.4961" x="614.252" y="361.9851">Entities &amp; Models</text></g><!--class IInventoryStateStore--><g class="entity" data-qualified-name="Core Layer .B.t kh. x.m ph.m..Interfaces.IInventoryStateStore" data-source-line="11" id="ent0004"><rect fill="#FFFFFF" height="76.5938" rx="2.5" ry="2.5" style="stroke:#000000;stroke-width:1;" width="484.2471" x="447.88" y="225.4"/><ellipse cx="613.5704" cy="239.4" fill="#FFFFFF" rx="9" ry="9" style="stroke:#000000;stroke-width:1;"/><path d="M609.4923,235.1656 L609.4923,233.0094 L616.8829,233.0094 L616.8829,235.1656 L614.4142,235.1656 L614.4142,243.2437 L616.8829,243.2437 L616.8829,245.4 L609.4923,245.4 L609.4923,243.2437 L611.9611,243.2437 L611.9611,235.1656 L609.4923,235.1656 Z " fill="#000000"/><text fill="#000000" font-family="Verdana" font-size="14" font-style="italic" lengthAdjust="spacing" textLength="145.3662" x="631.0704" y="244.2467">IInventoryStateStore</text><line style="stroke:#000000;stroke-width:1;" x1="448.88" x2="931.1271" y1="253.4" y2="253.4"/><line style="stroke:#000000;stroke-width:1;" x1="448.88" x2="931.1271" y1="261.4" y2="261.4"/><text fill="#000000" font-family="Verdana" font-size="14" lengthAdjust="spacing" textLength="443.5361" x="453.88" y="278.3951">+GetOrAddSnapshot(productId: string) : ProductStateSnapshot</text><text fill="#000000" font-family="Verdana" font-size="14" lengthAdjust="spacing" textLength="472.2471" x="453.88" y="294.692">+GetAllSnapshots() : IReadOnlyCollection&lt;ProductStateSnapshot&gt;</text></g><g class="entity" data-qualified-name="Core Layer .B.t kh. x.m ph.m..Interfaces.GMN5" data-source-line="17" id="ent0006"><path d="M451.12,90 L451.12,145.3984 A0,0 0 0 0 451.12,145.3984 L686,145.3984 L690,225.14 L694,145.3984 L928.872,145.3984 A0,0 0 0 0 928.872,145.3984 L928.872,100 L918.872,90 L451.12,90 A0,0 0 0 0 451.12,90" fill="#FFFFFF" style="stroke:#000000;stroke-width:1;"/><path d="M918.872,90 L918.872,100 L928.872,100 L918.872,90" fill="#FFFFFF" style="stroke:#000000;stroke-width:1;"/><text fill="#000000" font-family="Verdana" font-size="13" font-weight="700" lengthAdjust="spacing" textLength="233.6382" x="457.12" y="107.0669">Kho l&#432;u tr&#7919; t&#7853;p trung tr&#234;n RAM.</text><text fill="#000000" font-family="Verdana" font-size="13" lengthAdjust="spacing" textLength="262.5645" x="457.12" y="122.1997">Tri&#7875;n khai th&#7921;c t&#7871; t&#7841;i t&#7847;ng Infrastructure</text><text fill="#000000" font-family="Verdana" font-size="13" lengthAdjust="spacing" textLength="84.3286" x="457.12" y="137.3325">ph&#7843;i s&#7917; d&#7909;ng</text><text fill="#000000" font-family="Verdana" font-size="13" font-weight="700" lengthAdjust="spacing" textLength="157.2632" x="545.5809" y="137.3325">ConcurrentDictionary</text><text fill="#000000" font-family="Verdana" font-size="13" lengthAdjust="spacing" textLength="206.8955" x="706.9764" y="137.3325">&#273;&#7875; ch&#7883;u t&#7843;i truy xu&#7845;t song song.</text></g><!--class ProductStateSnapshot--><g class="entity" data-qualified-name="Core Layer .B.t kh. x.m ph.m..Entities . Models.ProductStateSnapshot" data-source-line="24" id="ent0009"><rect fill="#FFFFFF" height="190.6719" rx="2.5" ry="2.5" style="stroke:#000000;stroke-width:1;" width="416.8037" x="481.6" y="381.99"/><ellipse cx="608.1444" cy="395.99" fill="#FFFFFF" rx="9" ry="9" style="stroke:#000000;stroke-width:1;"/><path d="M611.1132,401.6306 Q610.5351,401.9275 609.8944,402.0681 Q609.2538,402.2244 608.5507,402.2244 Q606.0507,402.2244 604.7226,400.5837 Q603.4101,398.9275 603.4101,395.8025 Q603.4101,392.6775 604.7226,391.0212 Q606.0507,389.365 608.5507,389.365 Q609.2538,389.365 609.8944,389.5212 Q610.5507,389.6775 611.1132,389.9744 L611.1132,392.6931 Q610.4882,392.115 609.8944,391.8494 Q609.3007,391.5681 608.6757,391.5681 Q607.3319,391.5681 606.6444,392.6462 Q605.9569,393.7087 605.9569,395.8025 Q605.9569,397.8962 606.6444,398.9744 Q607.3319,400.0369 608.6757,400.0369 Q609.3007,400.0369 609.8944,399.7712 Q610.4882,399.49 611.1132,398.9119 L611.1132,401.6306 Z " fill="#000000"/><text fill="#000000" font-family="Verdana" font-size="14" lengthAdjust="spacing" textLength="156.2148" x="625.6444" y="400.8367">ProductStateSnapshot</text><line style="stroke:#000000;stroke-width:1;" x1="482.6" x2="897.4037" y1="409.99" y2="409.99"/><text fill="#000000" font-family="Verdana" font-size="14" lengthAdjust="spacing" textLength="219.4746" x="487.6" y="426.9851">-_stateLock : object &#171;readonly&#187;</text><text fill="#000000" font-family="Verdana" font-size="14" lengthAdjust="spacing" textLength="244.1592" x="487.6" y="443.282">+ProductId : string &#171;required, init&#187;</text><text fill="#000000" font-family="Verdana" font-size="14" lengthAdjust="spacing" textLength="248.6162" x="487.6" y="459.5789">+TotalPurchased : int &#171;private set&#187;</text><text fill="#000000" font-family="Verdana" font-size="14" lengthAdjust="spacing" textLength="205.8301" x="487.6" y="475.8757">+TotalSold : int &#171;private set&#187;</text><text fill="#000000" font-family="Verdana" font-size="14" lengthAdjust="spacing" textLength="180.0518" x="487.6" y="492.1726">+CurrentStock : int &#171;get&#187;</text><text fill="#000000" font-family="Verdana" font-size="14" lengthAdjust="spacing" textLength="347.6484" x="487.6" y="508.4695">+UnsoldBatches : Queue&lt;PurchaseBatch&gt; &#171;get&#187;</text><text fill="#000000" font-family="Verdana" font-size="14" lengthAdjust="spacing" textLength="404.8037" x="487.6" y="524.7664">+DailyMetrics : Dictionary&lt;DateOnly, DailyMetric&gt; &#171;get&#187;</text><line style="stroke:#000000;stroke-width:1;" x1="482.6" x2="897.4037" y1="532.0681" y2="532.0681"/><text fill="#000000" font-family="Verdana" font-size="14" lengthAdjust="spacing" textLength="339.6299" x="487.6" y="549.0632">+UpdateWithOrder(order: PurchaseOrder) : void</text><text fill="#000000" font-family="Verdana" font-size="14" lengthAdjust="spacing" textLength="345.0439" x="487.6" y="565.3601">+UpdateWithInvoice(invoice: SalesInvoice) : void</text></g><g class="entity" data-qualified-name="Core Layer .B.t kh. x.m ph.m..Entities . Models.GMN10" data-source-line="38" id="ent0011"><path d="M52.34,442.06 L52.34,512.5913 A0,0 0 0 0 52.34,512.5913 L401.6535,512.5913 A0,0 0 0 0 401.6535,512.5913 L401.6535,481.81 L481.24,477.81 L401.6535,473.81 L401.6535,452.06 L391.6535,442.06 L52.34,442.06 A0,0 0 0 0 52.34,442.06" fill="#FFFFFF" style="stroke:#000000;stroke-width:1;"/><path d="M391.6535,442.06 L391.6535,452.06 L401.6535,452.06 L391.6535,442.06" fill="#FFFFFF" style="stroke:#000000;stroke-width:1;"/><text fill="#000000" font-family="Verdana" font-size="13" font-weight="700" lengthAdjust="spacing" textLength="132.5327" x="58.34" y="459.1269">Tr&#225;i tim h&#7879; th&#7889;ng:</text><text fill="#000000" font-family="Verdana" font-size="13" lengthAdjust="spacing" textLength="328.3135" x="58.34" y="474.2597">S&#7917; d&#7909;ng Fine-Grained Locking (`lock(_stateLock)`)</text><text fill="#000000" font-family="Verdana" font-size="13" lengthAdjust="spacing" textLength="250.8594" x="58.34" y="489.3925">b&#234;n trong c&#225;c h&#224;m Update... &#273;&#7875; ch&#7889;ng</text><text fill="#000000" font-family="Verdana" font-size="13" lengthAdjust="spacing" textLength="283.2134" x="58.34" y="504.5253">l&#7895;i Race Condition khi b&#7883; &#273;a lu&#7891;ng c&#7853;p nh&#7853;t.</text></g><!--class PurchaseBatch--><g class="entity" data-qualified-name="Core Layer .B.t kh. x.m ph.m..Entities . Models.PurchaseBatch" data-source-line="44" id="ent0013"><rect fill="#FFFFFF" height="92.8906" rx="2.5" ry="2.5" style="stroke:#000000;stroke-width:1;" width="245.3652" x="395.32" y="675.09"/><ellipse cx="462.0671" cy="689.09" fill="#FFFFFF" rx="9" ry="9" style="stroke:#000000;stroke-width:1;"/><path d="M465.0358,694.7306 Q464.4577,695.0275 463.8171,695.1681 Q463.1764,695.3244 462.4733,695.3244 Q459.9733,695.3244 458.6452,693.6837 Q457.3327,692.0275 457.3327,688.9025 Q457.3327,685.7775 458.6452,684.1212 Q459.9733,682.465 462.4733,682.465 Q463.1764,682.465 463.8171,682.6212 Q464.4733,682.7775 465.0358,683.0744 L465.0358,685.7931 Q464.4108,685.215 463.8171,684.9494 Q463.2233,684.6681 462.5983,684.6681 Q461.2546,684.6681 460.5671,685.7462 Q459.8796,686.8087 459.8796,688.9025 Q459.8796,690.9962 460.5671,692.0744 Q461.2546,693.1369 462.5983,693.1369 Q463.2233,693.1369 463.8171,692.8712 Q464.4108,692.59 465.0358,692.0119 L465.0358,694.7306 Z " fill="#000000"/><text fill="#000000" font-family="Verdana" font-size="14" lengthAdjust="spacing" textLength="104.3711" x="479.5671" y="693.9367">PurchaseBatch</text><line style="stroke:#000000;stroke-width:1;" x1="396.32" x2="639.6852" y1="703.09" y2="703.09"/><text fill="#000000" font-family="Verdana" font-size="14" lengthAdjust="spacing" textLength="233.3652" x="401.32" y="720.0851">+PurchaseDate : DateTimeOffset</text><text fill="#000000" font-family="Verdana" font-size="14" lengthAdjust="spacing" textLength="179.0674" x="401.32" y="736.382">+RemainingQuantity : int</text><text fill="#000000" font-family="Verdana" font-size="14" lengthAdjust="spacing" textLength="140.1641" x="401.32" y="752.6789">+UnitCost : decimal</text><line style="stroke:#000000;stroke-width:1;" x1="396.32" x2="639.6852" y1="759.9806" y2="759.9806"/></g><g class="entity" data-qualified-name="Core Layer .B.t kh. x.m ph.m..Entities . Models.GMN14" data-source-line="50" id="ent0015"><path d="M454.63,870.41 L454.63,925.8084 A0,0 0 0 0 454.63,925.8084 L787.3697,925.8084 A0,0 0 0 0 787.3697,925.8084 L787.3697,880.41 L777.3697,870.41 L551.66,870.41 L547.66,768.39 L543.66,870.41 L454.63,870.41 A0,0 0 0 0 454.63,870.41" fill="#FFFFFF" style="stroke:#000000;stroke-width:1;"/><path d="M777.3697,870.41 L777.3697,880.41 L787.3697,880.41 L777.3697,870.41" fill="#FFFFFF" style="stroke:#000000;stroke-width:1;"/><text fill="#000000" font-family="Verdana" font-size="13" lengthAdjust="spacing" textLength="167.7686" x="460.63" y="887.4769">L&#432;u tr&#7919; l&#244; h&#224;ng nh&#7853;p v&#224;o.</text><text fill="#000000" font-family="Verdana" font-size="13" lengthAdjust="spacing" textLength="311.7397" x="460.63" y="902.6097">B&#7883; tr&#7915; d&#7847;n (Queue.Dequeue) khi c&#243; SalesInvoice</text><text fill="#000000" font-family="Verdana" font-size="13" lengthAdjust="spacing" textLength="289.2437" x="460.63" y="917.7425">&#273;&#7875; t&#237;nh Inventory Age v&#224; Stock Value (FIFO).</text></g><!--class DailyMetric--><g class="entity" data-qualified-name="Core Layer .B.t kh. x.m ph.m..Entities . Models.DailyMetric" data-source-line="55" id="ent0017"><rect fill="#FFFFFF" height="92.8906" rx="2.5" ry="2.5" style="stroke:#000000;stroke-width:1;" width="204.4111" x="110.79" y="675.09"/><ellipse cx="169.7714" cy="689.09" fill="#FFFFFF" rx="9" ry="9" style="stroke:#000000;stroke-width:1;"/><path d="M172.7402,694.7306 Q172.1621,695.0275 171.5214,695.1681 Q170.8808,695.3244 170.1777,695.3244 Q167.6777,695.3244 166.3496,693.6837 Q165.0371,692.0275 165.0371,688.9025 Q165.0371,685.7775 166.3496,684.1212 Q167.6777,682.465 170.1777,682.465 Q170.8808,682.465 171.5214,682.6212 Q172.1777,682.7775 172.7402,683.0744 L172.7402,685.7931 Q172.1152,685.215 171.5214,684.9494 Q170.9277,684.6681 170.3027,684.6681 Q168.9589,684.6681 168.2714,685.7462 Q167.5839,686.8087 167.5839,688.9025 Q167.5839,690.9962 168.2714,692.0744 Q168.9589,693.1369 170.3027,693.1369 Q170.9277,693.1369 171.5214,692.8712 Q172.1152,692.59 172.7402,692.0119 L172.7402,694.7306 Z " fill="#000000"/><text fill="#000000" font-family="Verdana" font-size="14" lengthAdjust="spacing" textLength="78.9482" x="187.2714" y="693.9367">DailyMetric</text><line style="stroke:#000000;stroke-width:1;" x1="111.79" x2="314.2011" y1="703.09" y2="703.09"/><text fill="#000000" font-family="Verdana" font-size="14" lengthAdjust="spacing" textLength="134.3262" x="116.79" y="720.0851">+QuantitySold : int</text><text fill="#000000" font-family="Verdana" font-size="14" lengthAdjust="spacing" textLength="177.1123" x="116.79" y="736.382">+QuantityPurchased : int</text><text fill="#000000" font-family="Verdana" font-size="14" lengthAdjust="spacing" textLength="192.4111" x="116.79" y="752.6789">+TotalSalesValue : decimal</text><line style="stroke:#000000;stroke-width:1;" x1="111.79" x2="314.2011" y1="759.9806" y2="759.9806"/></g><g class="entity" data-qualified-name="Core Layer .B.t kh. x.m ph.m..Entities . Models.GMN18" data-source-line="61" id="ent0019"><path d="M51.55,877.98 L51.55,918.2456 A0,0 0 0 0 51.55,918.2456 L374.4572,918.2456 A0,0 0 0 0 374.4572,918.2456 L374.4572,887.98 L364.4572,877.98 L217,877.98 L213,768.39 L209,877.98 L51.55,877.98 A0,0 0 0 0 51.55,877.98" fill="#FFFFFF" style="stroke:#000000;stroke-width:1;"/><path d="M364.4572,877.98 L364.4572,887.98 L374.4572,887.98 L364.4572,877.98" fill="#FFFFFF" style="stroke:#000000;stroke-width:1;"/><text fill="#000000" font-family="Verdana" font-size="13" lengthAdjust="spacing" textLength="284.2734" x="57.55" y="895.0469">Nh&#243;m d&#7919; li&#7879;u theo t&#7915;ng ng&#224;y (Time-series).</text><text fill="#000000" font-family="Verdana" font-size="13" lengthAdjust="spacing" textLength="301.9072" x="57.55" y="910.1797">H&#7895; tr&#7907; DateOnly c&#7921;c nh&#7865; &#273;&#7875; l&#7885;c KPI theo ng&#224;y.</text></g><!--class PurchaseOrder--><g class="entity" data-qualified-name="Core Layer .B.t kh. x.m ph.m..Entities . Models.PurchaseOrder" data-source-line="65" id="ent0021"><rect fill="#FFFFFF" height="137.75" rx="2.5" ry="2.5" style="stroke:#000000;stroke-width:1;" width="245.3652" x="1031.32" y="652.66"/><ellipse cx="1077.9587" cy="672.7928" fill="#FF7700" rx="9" ry="9" style="stroke:#000000;stroke-width:1;"/><path d="M1077.443,673.3553 Q1075.5837,672.6522 1074.9274,671.8866 Q1074.2868,671.1053 1074.2868,669.7928 Q1074.2868,668.1053 1075.3649,667.1366 Q1076.443,666.1678 1078.318,666.1678 Q1079.1774,666.1678 1080.0212,666.3709 Q1080.8805,666.5584 1081.7243,666.9491 L1081.7243,669.3397 Q1080.943,668.7772 1080.1149,668.4959 Q1079.3024,668.1991 1078.5055,668.1991 Q1077.6305,668.1991 1077.1462,668.5584 Q1076.6774,668.9178 1076.6774,669.5741 Q1076.6774,670.0897 1077.0212,670.4334 Q1077.3649,670.7616 1078.4587,671.1678 L1079.5212,671.5741 Q1081.0055,672.1209 1081.7087,673.0272 Q1082.4274,673.9334 1082.4274,675.3084 Q1082.4274,677.1834 1081.318,678.1053 Q1080.2087,679.0272 1077.9587,679.0272 Q1077.0368,679.0272 1076.1149,678.8084 Q1075.193,678.5897 1074.3337,678.1678 L1074.3337,675.6366 Q1075.3024,676.3241 1076.2243,676.6678 Q1077.1462,677.0116 1078.0368,677.0116 Q1078.943,677.0116 1079.443,676.6053 Q1079.943,676.1834 1079.943,675.4491 Q1079.943,674.8866 1079.5993,674.4803 Q1079.2712,674.0584 1078.6462,673.8084 L1077.443,673.3553 Z " fill="#000000"/><text fill="#000000" font-family="Verdana" font-size="12" font-style="italic" lengthAdjust="spacing" textLength="148.5879" x="1093.4587" y="668.7987">&#171;readonly record struct&#187;</text><text fill="#000000" font-family="Verdana" font-size="14" lengthAdjust="spacing" textLength="104.1592" x="1115.673" y="684.6239">PurchaseOrder</text><line style="stroke:#000000;stroke-width:1;" x1="1032.32" x2="1275.6852" y1="692.9256" y2="692.9256"/><text fill="#000000" font-family="Verdana" font-size="14" lengthAdjust="spacing" textLength="118.583" x="1037.32" y="709.9207">+OrderId : string</text><text fill="#000000" font-family="Verdana" font-size="14" lengthAdjust="spacing" textLength="132.2617" x="1037.32" y="726.2176">+ProductId : string</text><text fill="#000000" font-family="Verdana" font-size="14" lengthAdjust="spacing" textLength="177.1123" x="1037.32" y="742.5145">+QuantityPurchased : int</text><text fill="#000000" font-family="Verdana" font-size="14" lengthAdjust="spacing" textLength="140.1641" x="1037.32" y="758.8114">+UnitCost : decimal</text><text fill="#000000" font-family="Verdana" font-size="14" lengthAdjust="spacing" textLength="233.3652" x="1037.32" y="775.1082">+PurchaseDate : DateTimeOffset</text><line style="stroke:#000000;stroke-width:1;" x1="1032.32" x2="1275.6852" y1="782.41" y2="782.41"/></g><!--class SalesInvoice--><g class="entity" data-qualified-name="Core Layer .B.t kh. x.m ph.m..Entities . Models.SalesInvoice" data-source-line="73" id="ent0022"><rect fill="#FFFFFF" height="137.75" rx="2.5" ry="2.5" style="stroke:#000000;stroke-width:1;" width="231.29" x="720.35" y="652.66"/><ellipse cx="759.9511" cy="672.7928" fill="#FF7700" rx="9" ry="9" style="stroke:#000000;stroke-width:1;"/><path d="M759.4354,673.3553 Q757.5761,672.6522 756.9198,671.8866 Q756.2792,671.1053 756.2792,669.7928 Q756.2792,668.1053 757.3573,667.1366 Q758.4354,666.1678 760.3104,666.1678 Q761.1698,666.1678 762.0136,666.3709 Q762.8729,666.5584 763.7167,666.9491 L763.7167,669.3397 Q762.9354,668.7772 762.1073,668.4959 Q761.2948,668.1991 760.4979,668.1991 Q759.6229,668.1991 759.1386,668.5584 Q758.6698,668.9178 758.6698,669.5741 Q758.6698,670.0897 759.0136,670.4334 Q759.3573,670.7616 760.4511,671.1678 L761.5136,671.5741 Q762.9979,672.1209 763.7011,673.0272 Q764.4198,673.9334 764.4198,675.3084 Q764.4198,677.1834 763.3104,678.1053 Q762.2011,679.0272 759.9511,679.0272 Q759.0292,679.0272 758.1073,678.8084 Q757.1854,678.5897 756.3261,678.1678 L756.3261,675.6366 Q757.2948,676.3241 758.2167,676.6678 Q759.1386,677.0116 760.0292,677.0116 Q760.9354,677.0116 761.4354,676.6053 Q761.9354,676.1834 761.9354,675.4491 Q761.9354,674.8866 761.5917,674.4803 Q761.2636,674.0584 760.6386,673.8084 L759.4354,673.3553 Z " fill="#000000"/><text fill="#000000" font-family="Verdana" font-size="12" font-style="italic" lengthAdjust="spacing" textLength="148.5879" x="775.4511" y="668.7987">&#171;readonly record struct&#187;</text><text fill="#000000" font-family="Verdana" font-size="14" lengthAdjust="spacing" textLength="87.3154" x="806.0873" y="684.6239">SalesInvoice</text><line style="stroke:#000000;stroke-width:1;" x1="721.35" x2="950.64" y1="692.9256" y2="692.9256"/><text fill="#000000" font-family="Verdana" font-size="14" lengthAdjust="spacing" textLength="128.6045" x="726.35" y="709.9207">+InvoiceId : string</text><text fill="#000000" font-family="Verdana" font-size="14" lengthAdjust="spacing" textLength="132.2617" x="726.35" y="726.2176">+ProductId : string</text><text fill="#000000" font-family="Verdana" font-size="14" lengthAdjust="spacing" textLength="134.3262" x="726.35" y="742.5145">+QuantitySold : int</text><text fill="#000000" font-family="Verdana" font-size="14" lengthAdjust="spacing" textLength="190.3672" x="726.35" y="758.8114">+UnitSellingPrice : decimal</text><text fill="#000000" font-family="Verdana" font-size="14" lengthAdjust="spacing" textLength="219.29" x="726.35" y="775.1082">+InvoiceDate : DateTimeOffset</text><line style="stroke:#000000;stroke-width:1;" x1="721.35" x2="950.64" y1="782.41" y2="782.41"/></g><g class="entity" data-qualified-name="Core Layer .B.t kh. x.m ph.m..Entities . Models.GMN23" data-source-line="82" id="ent0024"><path d="M978.52,442.06 L978.52,512.5913 A0,0 0 0 0 978.52,512.5913 L1190.89,512.5913 L1194.89,652.17 L1198.89,512.5913 L1315.4746,512.5913 A0,0 0 0 0 1315.4746,512.5913 L1315.4746,452.06 L1305.4746,442.06 L978.52,442.06 A0,0 0 0 0 978.52,442.06" fill="#FFFFFF" style="stroke:#000000;stroke-width:1;"/><path d="M1305.4746,442.06 L1305.4746,452.06 L1315.4746,452.06 L1305.4746,442.06" fill="#FFFFFF" style="stroke:#000000;stroke-width:1;"/><text fill="#000000" font-family="Verdana" font-size="13" font-weight="700" lengthAdjust="spacing" textLength="221.1904" x="984.52" y="459.1269">T&#7888;I &#431;U RAM (Zero Allocation):</text><text fill="#000000" font-family="Verdana" font-size="13" lengthAdjust="spacing" textLength="236.1836" x="984.52" y="474.2597">S&#7917; d&#7909;ng `readonly record struct` &#273;&#7875;</text><text fill="#000000" font-family="Verdana" font-size="13" lengthAdjust="spacing" textLength="212.5132" x="984.52" y="489.3925">d&#7919; li&#7879;u n&#7857;m tr&#234;n Stack, tri&#7879;t ti&#234;u</text><text fill="#000000" font-family="Verdana" font-size="13" lengthAdjust="spacing" textLength="315.9546" x="984.52" y="504.5253">ho&#224;n to&#224;n &#225;p l&#7921;c d&#7885;n r&#225;c cho Garbage Collector.</text></g><!--reverse link IInventoryStateStore to ProductStateSnapshot--><g class="link" data-entity-1="ent0004" data-entity-2="ent0009" data-link-type="composition" data-source-line="90" id="lnk26"><path codeLine="90" d="M690,314.38 C690,336.62 690,353.63 690,381.62" fill="none" id="IInventoryStateStore-backto-ProductStateSnapshot" style="stroke:#000000;stroke-width:1;"/><polygon fill="#000000" points="690,302.38,686,308.38,690,314.38,694,308.38,690,302.38" style="stroke:#000000;stroke-width:1;"/><text fill="#000000" font-family="Verdana" font-size="13" lengthAdjust="spacing" textLength="133.7705" x="547.2646" y="338.0669">Contains &amp; Manages</text><text fill="#000000" font-family="Verdana" font-size="13" lengthAdjust="spacing" textLength="23.0356" x="666.1208" y="370.7903">0..*</text></g><!--reverse link ProductStateSnapshot to PurchaseBatch--><g class="link" data-entity-1="ent0009" data-entity-2="ent0013" data-link-type="composition" data-source-line="92" id="lnk27"><path codeLine="92" d="M561.14,585.14 C561.14,620.02 561.14,645.9 561.14,674.66" fill="none" id="ProductStateSnapshot-backto-PurchaseBatch" style="stroke:#000000;stroke-width:1;"/><polygon fill="#000000" points="561.14,573.14,557.14,579.14,561.14,585.14,565.14,579.14,561.14,573.14" style="stroke:#000000;stroke-width:1;"/><text fill="#000000" font-family="Verdana" font-size="13" lengthAdjust="spacing" textLength="86.3408" x="474.4046" y="604.9669">FIFO tracking</text><text fill="#000000" font-family="Verdana" font-size="13" lengthAdjust="spacing" textLength="52.8506" x="487.0174" y="620.0997">(Queue)</text><text fill="#000000" font-family="Verdana" font-size="13" lengthAdjust="spacing" textLength="23.0356" x="542.5915" y="664.0897">0..*</text></g><!--reverse link ProductStateSnapshot to DailyMetric--><g class="link" data-entity-1="ent0009" data-entity-2="ent0017" data-link-type="composition" data-source-line="93" id="lnk28"><path codeLine="93" d="M469.13,542.81 C340.87,542.81 213,542.81 213,542.81 C213,542.81 213,622.09 213,675.04" fill="none" id="ProductStateSnapshot-backto-DailyMetric" style="stroke:#000000;stroke-width:1;"/><polygon fill="#000000" points="481.13,542.81,475.13,538.81,469.13,542.81,475.13,546.81,481.13,542.81" style="stroke:#000000;stroke-width:1;"/><text fill="#000000" font-family="Verdana" font-size="13" lengthAdjust="spacing" textLength="143.9014" x="136.2146" y="555.8769">Time-series bucketing</text><text fill="#000000" font-family="Verdana" font-size="13" lengthAdjust="spacing" textLength="76.8193" x="165.6233" y="571.0097">(Dictionary)</text><text fill="#000000" font-family="Verdana" font-size="13" lengthAdjust="spacing" textLength="23.0356" x="188.3142" y="664.1861">0..*</text></g><!--link ProductStateSnapshot to PurchaseOrder--><g class="link" data-entity-1="ent0009" data-entity-2="ent0021" data-link-type="dependency" data-source-line="95" id="lnk29"><path codeLine="95" d="M898.76,542.81 C1005.46,542.81 1113.11,542.81 1113.11,542.81 C1113.11,542.81 1113.11,595.94 1113.11,646.18" fill="none" id="ProductStateSnapshot-to-PurchaseOrder" style="stroke:#000000;stroke-width:1;stroke-dasharray:7,7;"/><polygon fill="#000000" points="1113.11,652.18,1117.11,643.18,1113.11,647.18,1109.11,643.18,1113.11,652.18" style="stroke:#000000;stroke-width:1;"/><text fill="#000000" font-family="Verdana" font-size="13" lengthAdjust="spacing" textLength="67.7168" x="983.8846" y="538.8769">Consumes</text></g><!--link ProductStateSnapshot to SalesInvoice--><g class="link" data-entity-1="ent0009" data-entity-2="ent0022" data-link-type="dependency" data-source-line="96" id="lnk30"><path codeLine="96" d="M809.38,573.14 C809.38,599.6 809.38,621.79 809.38,646.41" fill="none" id="ProductStateSnapshot-to-SalesInvoice" style="stroke:#000000;stroke-width:1;stroke-dasharray:7,7;"/><polygon fill="#000000" points="809.38,652.41,813.38,643.41,809.38,647.41,805.38,643.41,809.38,652.41" style="stroke:#000000;stroke-width:1;"/><text fill="#000000" font-family="Verdana" font-size="13" lengthAdjust="spacing" textLength="67.7168" x="732.6446" y="608.8469">Consumes</text></g><?plantuml-src hLRFRnj55BxxhtWO2UmbiN8hM94bvuU3rOIaSGeIGYBZtObtyEpCCZiRrQ2SEFI0Ab5nu9eGLKYjebAL2_61mwB-7_vFU3DUsxlsEcw1FQpNC_FUlFdUzxqtxscV1XH2JfWeHNqcGg9802udKTJKMh5kh6dRbQB3lgEmaLd2cQ1w45AGIlioCo6aHoCQmiVPrOg8_i9WIDm-wT6E7d0AYhgQY1wdfL8w3kLjgIZiam5LKDaQtJxJqFT7jzVmAFaLhV7pAgYMuVjI2V2PMhM5fkgCk3Ggm_kjdTPkQnVNGFgmoIoqs-AS2YtLeAE9nZ3CRhE5vla8zgW-L4tFwmWIHhxKbL19BtPrswj3XFY8NXNgS3GU7Fj9LouwQd8-cOmgngnzJ8btAFXWMtAEvsTIR1QvQanzNKo_fXz2QWfQXY3F2e-KYyDnxliI-9lVOz1gD7m9UdHx4-9tB7huJfuBE6uUr1mdPtMYs6ZuWq3q2GFjZuQlN6FubtbTCVF-3StRuamHn0IZZn79d0UJh6i6qMXu0zve-0oNEyws56wi50Qym-pXYHeu3lpz53S35xVvCJQ-qGwT3k1HR2aGIJGshzfq1oey2qDf356U3hj2Cyre11_00LAJMrPyihkrsymasnA-C8rpZ5Y7hoCplI_TFcPGTh_1lC7cfi9CIinaep6NzwC9Ns126BlwsvWfwgqX7PbUi3cHcl2ZMBa-YQWnHDAYLQZOEMuD4LrYqf7yxLPlZs57VjXJZ0rw1GiVYWXzRX7j-eXW7Hx4DAQRaz3iU6E9wGvXV710ySYkiPobU7C7mpAiNykkANOp7qxeeUqNJFk7ogEg8iqRvPV6OmUDiCubyvQQeaOaSsc5ZN_hq26SHkdeWlKonN5wfetaLahVSKvKObJ20a1EFxO2UYfwzJcHTJBQQ65nNTzJM9Gn_OPgXZQLKuvVbHd_ggVLd8UkaQzMHXzkSkM2drm6wRbhjLf6LxXx7ba-6lx2uDXKHHIbnqocKEqCkYX2D2J0uz7mP-FOrWk1ShxH1GAS5rIMA0krTJ9h-60OWZydBA27PsV8sRcrnpH0D1261p4nWXwCQRj0LwQtPQHnqgCk2mWloADDNrTgBGERm6oCEN_xipB9apyCd0Y0FNe8vycbhELMRncepEeNc4KiY52nOgdjeDRnjshnT9FNERhbF8mJf9CRuSEqa4CJYnZk1cEnVavuJA7IQhSEgwlnp-Xh0Vq9aBEYiMJ1N24gB3pcIEFGtW7vJ7Gvfv_voUl0I05nnyRp69FWKucjOFZ29A2NN0wWOfYo7b65bRsQJyIdI6QRY6kOL1gahUbP9dT_fZ0ZvP-uSF-eFNPklRuzeMsbmOe5bSuQjfFMlNiR6rMOD05pcS7I1EDc28t60lZMFjCJLZQDVvMRE-JmBWgyc4SXo-3_04BguN-0OIc73G8Tol6osZjI9jfbIAInh0BYpjjNZXppFM0q_AaDRru-DFShg7n9bGIy3qgNc5fRlQiPd1OZUfeIEMUN5OqOtRuAqaiTjYUtluP_p9J6NfGyZ_EMliJoXYSnx-GgDFf0nQ2_9mAKwIOkNXptYEgQIrLwNvNgxZlOXrYskJrWvBCmicE5jsvdVHtA6xMQKow-WzMX3AOpQUm1zY9718OH0PHBqsmK6cOTvtgHzMYgA692R7_zIa1QigiJlwjSPikhTPWfIj2DtJxL4yUpwqzrTTIrMcEkqam0YE9WTkobjZbzBfXU_0C0?></g></svg>