<svg xmlns="http://www.w3.org/2000/svg" xmlns:xlink="http://www.w3.org/1999/xlink" contentStyleType="text/css" data-diagram-type="CLASS" height="1831px" preserveAspectRatio="none" style="width:1760px;height:1831px;background:#FFFFFF;" version="1.1" viewBox="0 0 1760 1831" width="1760px" zoomAndPan="magnify"><?plantuml 1.2026.3beta4?><defs/><g><!--cluster Infrastructure & Application Pipeline--><g class="cluster" data-qualified-name="Infrastructure . Application Pipeline" data-source-line="11" id="ent0002"><path d="M13.5,11 L315.1367,11 A3.75,3.75 0 0 1 317.6367,13.5 L324.6367,43.2969 L1742.5,43.2969 A2.5,2.5 0 0 1 1745,45.7969 L1745,1813.55 A2.5,2.5 0 0 1 1742.5,1816.05 L13.5,1816.05 A2.5,2.5 0 0 1 11,1813.55 L11,13.5 A2.5,2.5 0 0 1 13.5,11" fill="#FFFFFF" style="stroke:#000000;stroke-width:1;"/><line style="stroke:#000000;stroke-width:1;" x1="11" x2="324.6367" y1="43.2969" y2="43.2969"/><text fill="#000000" font-family="Verdana" font-size="14" font-weight="700" lengthAdjust="spacing" textLength="290.6367" x="20" y="30.9951">Infrastructure &amp; Application Pipeline</text></g><!--cluster FAST-PATH (I/O Bound)--><g class="cluster" data-qualified-name="Infrastructure . Application Pipeline.FAST-PATH .I.O Bound." data-source-line="13" id="ent0003"><path d="M49.5,64 L243.7168,64 A3.75,3.75 0 0 1 246.2168,66.5 L253.2168,96.2969 L637.5,96.2969 A2.5,2.5 0 0 1 640,98.7969 L640,434.87 A2.5,2.5 0 0 1 637.5,437.37 L49.5,437.37 A2.5,2.5 0 0 1 47,434.87 L47,66.5 A2.5,2.5 0 0 1 49.5,64" fill="#FDFEFE" style="stroke:#000000;stroke-width:1;"/><line style="stroke:#000000;stroke-width:1;" x1="47" x2="253.2168" y1="96.2969" y2="96.2969"/><text fill="#000000" font-family="Verdana" font-size="14" font-weight="700" lengthAdjust="spacing" textLength="183.2168" x="56" y="83.9951">FAST-PATH (I/O Bound)</text></g><!--cluster System (Threading)--><g class="cluster" data-qualified-name="Infrastructure . Application Pipeline.System .Threading." data-source-line="31" id="ent0010"><path d="M37.5,539.37 L204.6602,539.37 A3.75,3.75 0 0 1 207.1602,541.87 L214.1602,571.6669 L1562.5,571.6669 A2.5,2.5 0 0 1 1565,574.1669 L1565,906.03 A2.5,2.5 0 0 1 1562.5,908.53 L37.5,908.53 A2.5,2.5 0 0 1 35,906.03 L35,541.87 A2.5,2.5 0 0 1 37.5,539.37" fill="#F9EBEA" style="stroke:#000000;stroke-width:1;"/><line style="stroke:#000000;stroke-width:1;" x1="35" x2="214.1602" y1="571.6669" y2="571.6669"/><text fill="#000000" font-family="Verdana" font-size="14" font-weight="700" lengthAdjust="spacing" textLength="156.1602" x="44" y="559.3651">System (Threading)</text></g><!--cluster Channels (Bounded Buffer)--><g class="cluster" data-qualified-name="Infrastructure . Application Pipeline.System .Threading..Channels .Bounded Buffer." data-source-line="32" id="ent0011"><path d="M61.5,592.37 L286.2734,592.37 A3.75,3.75 0 0 1 288.7734,594.87 L295.7734,624.6669 L1078.5,624.6669 A2.5,2.5 0 0 1 1081,627.1669 L1081,882.03 A2.5,2.5 0 0 1 1078.5,884.53 L61.5,884.53 A2.5,2.5 0 0 1 59,882.03 L59,594.87 A2.5,2.5 0 0 1 61.5,592.37" fill="#FDEDEC" style="stroke:#000000;stroke-width:1;"/><line style="stroke:#000000;stroke-width:1;" x1="59" x2="295.7734" y1="624.6669" y2="624.6669"/><text fill="#000000" font-family="Verdana" font-size="14" font-weight="700" lengthAdjust="spacing" textLength="213.7734" x="68" y="612.3651">Channels (Bounded Buffer)</text></g><!--cluster Idempotency--><g class="cluster" data-qualified-name="Infrastructure . Application Pipeline.System .Threading..Idempotency" data-source-line="46" id="ent0017"><path d="M1107.5,592.37 L1221.0322,592.37 A3.75,3.75 0 0 1 1223.5322,594.87 L1230.5322,624.6669 L1538.5,624.6669 A2.5,2.5 0 0 1 1541,627.1669 L1541,882.03 A2.5,2.5 0 0 1 1538.5,884.53 L1107.5,884.53 A2.5,2.5 0 0 1 1105,882.03 L1105,594.87 A2.5,2.5 0 0 1 1107.5,592.37" fill="#EBF5FB" style="stroke:#000000;stroke-width:1;"/><line style="stroke:#000000;stroke-width:1;" x1="1105" x2="1230.5322" y1="624.6669" y2="624.6669"/><text fill="#000000" font-family="Verdana" font-size="14" font-weight="700" lengthAdjust="spacing" textLength="102.5322" x="1114" y="612.3651">Idempotency</text></g><!--cluster SLOW-PATH (CPU/RAM Bound)--><g class="cluster" data-qualified-name="Infrastructure . Application Pipeline.SLOW-PATH .CPU.RAM Bound." data-source-line="57" id="ent0021"><path d="M465.5,932.53 L716.373,932.53 A3.75,3.75 0 0 1 718.873,935.03 L725.873,964.8269 L924.5,964.8269 A2.5,2.5 0 0 1 927,967.3269 L927,1419.36 A2.5,2.5 0 0 1 924.5,1421.86 L465.5,1421.86 A2.5,2.5 0 0 1 463,1419.36 L463,935.03 A2.5,2.5 0 0 1 465.5,932.53" fill="#E8F8F5" style="stroke:#000000;stroke-width:1;"/><line style="stroke:#000000;stroke-width:1;" x1="463" x2="725.873" y1="964.8269" y2="964.8269"/><text fill="#000000" font-family="Verdana" font-size="14" font-weight="700" lengthAdjust="spacing" textLength="239.873" x="472" y="952.5251">SLOW-PATH (CPU/RAM Bound)</text></g><!--cluster File Parsers--><g class="cluster" data-qualified-name="Infrastructure . Application Pipeline.File Parsers" data-source-line="76" id="ent0026"><path d="M382.5,1523.86 L486.708,1523.86 A3.75,3.75 0 0 1 489.208,1526.36 L496.208,1556.1569 L1007.5,1556.1569 A2.5,2.5 0 0 1 1010,1558.6569 L1010,1789.55 A2.5,2.5 0 0 1 1007.5,1792.05 L382.5,1792.05 A2.5,2.5 0 0 1 380,1789.55 L380,1526.36 A2.5,2.5 0 0 1 382.5,1523.86" fill="#FEF9E7" style="stroke:#000000;stroke-width:1;"/><line style="stroke:#000000;stroke-width:1;" x1="380" x2="496.208" y1="1556.1569" y2="1556.1569"/><text fill="#000000" font-family="Verdana" font-size="14" font-weight="700" lengthAdjust="spacing" textLength="93.208" x="389" y="1543.8551">File Parsers</text></g><!--cluster Core & Application State--><g class="cluster" data-qualified-name="Infrastructure . Application Pipeline.Core . Application State" data-source-line="86" id="ent0030"><path d="M996.5,1166.26 L1202.3311,1166.26 A3.75,3.75 0 0 1 1204.8311,1168.76 L1211.8311,1198.5569 L1718.5,1198.5569 A2.5,2.5 0 0 1 1721,1201.0569 L1721,1301.03 A2.5,2.5 0 0 1 1718.5,1303.53 L996.5,1303.53 A2.5,2.5 0 0 1 994,1301.03 L994,1168.76 A2.5,2.5 0 0 1 996.5,1166.26" fill="#F4F6F6" style="stroke:#000000;stroke-width:1;"/><line style="stroke:#000000;stroke-width:1;" x1="994" x2="1211.8311" y1="1198.5569" y2="1198.5569"/><text fill="#000000" font-family="Verdana" font-size="14" font-weight="700" lengthAdjust="spacing" textLength="194.8311" x="1003" y="1186.2551">Core &amp; Application State</text></g><!--class IFileMonitorService--><g class="entity" data-qualified-name="Infrastructure . Application Pipeline.FAST-PATH .I.O Bound..IFileMonitorService" data-source-line="14" id="ent0004"><rect fill="#FFFFFF" height="104.8906" rx="2.5" ry="2.5" style="stroke:#000000;stroke-width:1;" width="196.9658" x="62.52" y="109"/><ellipse cx="86.9647" cy="127.1484" fill="#FFFFFF" rx="9" ry="9" style="stroke:#000000;stroke-width:1;"/><path d="M82.8866,122.9141 L82.8866,120.7578 L90.2772,120.7578 L90.2772,122.9141 L87.8084,122.9141 L87.8084,130.9922 L90.2772,130.9922 L90.2772,133.1484 L82.8866,133.1484 L82.8866,130.9922 L85.3553,130.9922 L85.3553,122.9141 L82.8866,122.9141 Z " fill="#000000"/><text fill="#000000" font-family="Verdana" font-size="14" font-style="italic" lengthAdjust="spacing" textLength="133.5332" x="106.5079" y="131.9951">IFileMonitorService</text><line style="stroke:#000000;stroke-width:1;" x1="63.52" x2="258.4858" y1="145.2969" y2="145.2969"/><line style="stroke:#000000;stroke-width:1;" x1="63.52" x2="258.4858" y1="153.2969" y2="153.2969"/><text fill="#000000" font-family="Verdana" font-size="14" lengthAdjust="spacing" textLength="174.9658" x="73.52" y="175.292">+StartMonitoring() : void</text><text fill="#000000" font-family="Verdana" font-size="14" lengthAdjust="spacing" textLength="172.5938" x="73.52" y="201.5889">+StopMonitoring() : void</text></g><!--class InventoryFileSystemWatcher--><g class="entity" data-qualified-name="Infrastructure . Application Pipeline.FAST-PATH .I.O Bound..InventoryFileSystemWatcher" data-source-line="18" id="ent0005"><rect fill="#FFFFFF" height="157.4844" rx="2.5" ry="2.5" style="stroke:#000000;stroke-width:1;" width="361.6504" x="74.17" y="263.89"/><ellipse cx="145.0596" cy="282.0384" fill="#FFFFFF" rx="9" ry="9" style="stroke:#000000;stroke-width:1;"/><path d="M148.0284,287.6791 Q147.4503,287.9759 146.8096,288.1166 Q146.169,288.2728 145.4659,288.2728 Q142.9659,288.2728 141.6378,286.6322 Q140.3253,284.9759 140.3253,281.8509 Q140.3253,278.7259 141.6378,277.0697 Q142.9659,275.4134 145.4659,275.4134 Q146.169,275.4134 146.8096,275.5697 Q147.4659,275.7259 148.0284,276.0228 L148.0284,278.7416 Q147.4034,278.1634 146.8096,277.8978 Q146.2159,277.6166 145.5909,277.6166 Q144.2471,277.6166 143.5596,278.6947 Q142.8721,279.7572 142.8721,281.8509 Q142.8721,283.9447 143.5596,285.0228 Q144.2471,286.0853 145.5909,286.0853 Q146.2159,286.0853 146.8096,285.8197 Q147.4034,285.5384 148.0284,284.9603 L148.0284,287.6791 Z " fill="#000000"/><text fill="#000000" font-family="Verdana" font-size="14" lengthAdjust="spacing" textLength="202.3711" x="167.5596" y="286.8851">InventoryFileSystemWatcher</text><line style="stroke:#000000;stroke-width:1;" x1="75.17" x2="434.8204" y1="300.1869" y2="300.1869"/><text fill="#000000" font-family="Verdana" font-size="14" lengthAdjust="spacing" textLength="269.2744" x="85.17" y="322.182">-_queueProducer : IFileQueueProducer</text><text fill="#000000" font-family="Verdana" font-size="14" lengthAdjust="spacing" textLength="272.8564" x="85.17" y="348.4789">-_watchers : List&lt;FileSystemWatcher&gt;</text><line style="stroke:#000000;stroke-width:1;" x1="75.17" x2="434.8204" y1="360.7806" y2="360.7806"/><text fill="#000000" font-family="Verdana" font-size="14" lengthAdjust="spacing" textLength="174.9658" x="85.17" y="382.7757">+StartMonitoring() : void</text><text fill="#000000" font-family="Verdana" font-size="14" lengthAdjust="spacing" textLength="339.6504" x="85.17" y="409.0726">-SafeHandleNewFileEvent(filePath: string) : Task</text></g><g class="entity" data-qualified-name="Infrastructure . Application Pipeline.FAST-PATH .I.O Bound..GMN7" data-source-line="26" id="ent0008"><path d="M359.6,136.31 L359.6,186.5756 A0,0 0 0 0 359.6,186.5756 L393.71,186.5756 L397.71,263.45 L401.71,186.5756 L624.3905,186.5756 A0,0 0 0 0 624.3905,186.5756 L624.3905,146.31 L614.3905,136.31 L359.6,136.31 A0,0 0 0 0 359.6,136.31" fill="#FFFFFF" style="stroke:#000000;stroke-width:1;"/><path d="M614.3905,136.31 L614.3905,146.31 L624.3905,146.31 L614.3905,136.31" fill="#FFFFFF" style="stroke:#000000;stroke-width:1;"/><text fill="#000000" font-family="Verdana" font-size="13" lengthAdjust="spacing" textLength="233.7905" x="370.6" y="158.3769">&#272;&#7849;y file path v&#224;o Queue c&#7921;c nhanh.</text><text fill="#000000" font-family="Verdana" font-size="13" lengthAdjust="spacing" textLength="181.0986" x="370.6" y="173.5097">Kh&#244;ng block thread c&#7911;a OS.</text></g><!--class IFileQueueProducer--><g class="entity" data-qualified-name="Infrastructure . Application Pipeline.System .Threading..Channels .Bounded Buffer..IFileQueueProducer" data-source-line="33" id="ent0012"><rect fill="#FFFFFF" height="78.5938" rx="2.5" ry="2.5" style="stroke:#000000;stroke-width:1;" width="360.1465" x="74.93" y="637.37"/><ellipse cx="177.6751" cy="655.5184" fill="#FFFFFF" rx="9" ry="9" style="stroke:#000000;stroke-width:1;"/><path d="M173.597,651.2841 L173.597,649.1278 L180.9876,649.1278 L180.9876,651.2841 L178.5189,651.2841 L178.5189,659.3622 L180.9876,659.3622 L180.9876,661.5184 L173.597,661.5184 L173.597,659.3622 L176.0657,659.3622 L176.0657,651.2841 L173.597,651.2841 Z " fill="#000000"/><text fill="#000000" font-family="Verdana" font-size="14" font-style="italic" lengthAdjust="spacing" textLength="137.1563" x="200.1751" y="660.3651">IFileQueueProducer</text><line style="stroke:#000000;stroke-width:1;" x1="75.93" x2="434.0765" y1="673.6669" y2="673.6669"/><line style="stroke:#000000;stroke-width:1;" x1="75.93" x2="434.0765" y1="681.6669" y2="681.6669"/><text fill="#000000" font-family="Verdana" font-size="14" lengthAdjust="spacing" textLength="338.1465" x="85.93" y="703.662">+EnqueueFileAsync(filePath: string) : ValueTask</text></g><!--class IFileQueueConsumer--><g class="entity" data-qualified-name="Infrastructure . Application Pipeline.System .Threading..Channels .Bounded Buffer..IFileQueueConsumer" data-source-line="36" id="ent0013"><rect fill="#FFFFFF" height="78.5938" rx="2.5" ry="2.5" style="stroke:#000000;stroke-width:1;" width="530.751" x="534.62" y="637.37"/><ellipse cx="718.2684" cy="655.5184" fill="#FFFFFF" rx="9" ry="9" style="stroke:#000000;stroke-width:1;"/><path d="M714.1903,651.2841 L714.1903,649.1278 L721.5809,649.1278 L721.5809,651.2841 L719.1122,651.2841 L719.1122,659.3622 L721.5809,659.3622 L721.5809,661.5184 L714.1903,661.5184 L714.1903,659.3622 L716.6591,659.3622 L716.6591,651.2841 L714.1903,651.2841 Z " fill="#000000"/><text fill="#000000" font-family="Verdana" font-size="14" font-style="italic" lengthAdjust="spacing" textLength="145.9541" x="740.7684" y="660.3651">IFileQueueConsumer</text><line style="stroke:#000000;stroke-width:1;" x1="535.62" x2="1064.371" y1="673.6669" y2="673.6669"/><line style="stroke:#000000;stroke-width:1;" x1="535.62" x2="1064.371" y1="681.6669" y2="681.6669"/><text fill="#000000" font-family="Verdana" font-size="14" lengthAdjust="spacing" textLength="508.751" x="545.62" y="703.662">+ReadAllFilesAsync(ct: CancellationToken) : IAsyncEnumerable&lt;string&gt;</text></g><!--class FileProcessingChannel--><g class="entity" data-qualified-name="Infrastructure . Application Pipeline.System .Threading..Channels .Bounded Buffer..FileProcessingChannel" data-source-line="39" id="ent0014"><rect fill="#FFFFFF" height="102.5625" rx="2.5" ry="2.5" style="stroke:#000000;stroke-width:1;" width="224.1934" x="414.9" y="765.96"/><ellipse cx="440.932" cy="796.0928" fill="#FFFFFF" rx="9" ry="9" style="stroke:#000000;stroke-width:1;"/><path d="M443.9007,801.7334 Q443.3226,802.0303 442.682,802.1709 Q442.0414,802.3272 441.3382,802.3272 Q438.8382,802.3272 437.5101,800.6866 Q436.1976,799.0303 436.1976,795.9053 Q436.1976,792.7803 437.5101,791.1241 Q438.8382,789.4678 441.3382,789.4678 Q442.0414,789.4678 442.682,789.6241 Q443.3382,789.7803 443.9007,790.0772 L443.9007,792.7959 Q443.2757,792.2178 442.682,791.9522 Q442.0882,791.6709 441.4632,791.6709 Q440.1195,791.6709 439.432,792.7491 Q438.7445,793.8116 438.7445,795.9053 Q438.7445,797.9991 439.432,799.0772 Q440.1195,800.1397 441.4632,800.1397 Q442.0882,800.1397 442.682,799.8741 Q443.2757,799.5928 443.9007,799.0147 L443.9007,801.7334 Z " fill="#000000"/><text fill="#000000" font-family="Verdana" font-size="12" font-style="italic" lengthAdjust="spacing" textLength="71.2266" x="503.8314" y="787.0987">&#171;Singleton&#187;</text><text fill="#000000" font-family="Verdana" font-size="14" lengthAdjust="spacing" textLength="157.2334" x="460.828" y="812.9239">FileProcessingChannel</text><line style="stroke:#000000;stroke-width:1;" x1="415.9" x2="638.0934" y1="826.2256" y2="826.2256"/><text fill="#000000" font-family="Verdana" font-size="14" lengthAdjust="spacing" textLength="202.1934" x="425.9" y="848.2207">-_channel : Channel&lt;string&gt;</text><line style="stroke:#000000;stroke-width:1;" x1="415.9" x2="638.0934" y1="860.5225" y2="860.5225"/></g><!--class IIdempotencyRegistry--><g class="entity" data-qualified-name="Infrastructure . Application Pipeline.System .Threading..Idempotency.IIdempotencyRegistry" data-source-line="47" id="ent0018"><rect fill="#FFFFFF" height="78.5938" rx="2.5" ry="2.5" style="stroke:#000000;stroke-width:1;" width="271.8672" x="1220.07" y="637.37"/><ellipse cx="1270.3801" cy="655.5184" fill="#FFFFFF" rx="9" ry="9" style="stroke:#000000;stroke-width:1;"/><path d="M1266.3019,651.2841 L1266.3019,649.1278 L1273.6926,649.1278 L1273.6926,651.2841 L1271.2238,651.2841 L1271.2238,659.3622 L1273.6926,659.3622 L1273.6926,661.5184 L1266.3019,661.5184 L1266.3019,659.3622 L1268.7707,659.3622 L1268.7707,651.2841 L1266.3019,651.2841 Z " fill="#000000"/><text fill="#000000" font-family="Verdana" font-size="14" font-style="italic" lengthAdjust="spacing" textLength="153.7471" x="1292.8801" y="660.3651">IIdempotencyRegistry</text><line style="stroke:#000000;stroke-width:1;" x1="1221.07" x2="1490.9372" y1="673.6669" y2="673.6669"/><line style="stroke:#000000;stroke-width:1;" x1="1221.07" x2="1490.9372" y1="681.6669" y2="681.6669"/><text fill="#000000" font-family="Verdana" font-size="14" lengthAdjust="spacing" textLength="249.8672" x="1231.07" y="703.662">+TryAdd(fileIdentifier: string) : bool</text></g><!--class InMemoryIdempotencyRegistry--><g class="entity" data-qualified-name="Infrastructure . Application Pipeline.System .Threading..Idempotency.InMemoryIdempotencyRegistry" data-source-line="50" id="ent0019"><rect fill="#FFFFFF" height="102.5625" rx="2.5" ry="2.5" style="stroke:#000000;stroke-width:1;" width="404.915" x="1120.54" y="765.96"/><ellipse cx="1204.4692" cy="796.0928" fill="#FFFFFF" rx="9" ry="9" style="stroke:#000000;stroke-width:1;"/><path d="M1207.4379,801.7334 Q1206.8598,802.0303 1206.2192,802.1709 Q1205.5786,802.3272 1204.8754,802.3272 Q1202.3754,802.3272 1201.0473,800.6866 Q1199.7348,799.0303 1199.7348,795.9053 Q1199.7348,792.7803 1201.0473,791.1241 Q1202.3754,789.4678 1204.8754,789.4678 Q1205.5786,789.4678 1206.2192,789.6241 Q1206.8754,789.7803 1207.4379,790.0772 L1207.4379,792.7959 Q1206.8129,792.2178 1206.2192,791.9522 Q1205.6254,791.6709 1205.0004,791.6709 Q1203.6567,791.6709 1202.9692,792.7491 Q1202.2817,793.8116 1202.2817,795.9053 Q1202.2817,797.9991 1202.9692,799.0772 Q1203.6567,800.1397 1205.0004,800.1397 Q1205.6254,800.1397 1206.2192,799.8741 Q1206.8129,799.5928 1207.4379,799.0147 L1207.4379,801.7334 Z " fill="#000000"/><text fill="#000000" font-family="Verdana" font-size="12" font-style="italic" lengthAdjust="spacing" textLength="71.2266" x="1301.1342" y="787.0987">&#171;Singleton&#187;</text><text fill="#000000" font-family="Verdana" font-size="14" lengthAdjust="spacing" textLength="219.5566" x="1226.9692" y="812.9239">InMemoryIdempotencyRegistry</text><line style="stroke:#000000;stroke-width:1;" x1="1121.54" x2="1524.455" y1="826.2256" y2="826.2256"/><text fill="#000000" font-family="Verdana" font-size="14" lengthAdjust="spacing" textLength="382.915" x="1131.54" y="848.2207">-_processedFiles : ConcurrentDictionary&lt;string, byte&gt;</text><line style="stroke:#000000;stroke-width:1;" x1="1121.54" x2="1524.455" y1="860.5225" y2="860.5225"/></g><!--class FileProcessingBackgroundService--><g class="entity" data-qualified-name="Infrastructure . Application Pipeline.SLOW-PATH .CPU.RAM Bound..FileProcessingBackgroundService" data-source-line="58" id="ent0022"><rect fill="#FFFFFF" height="312.9375" rx="2.5" ry="2.5" style="stroke:#000000;stroke-width:1;" width="431.0215" x="479.49" y="1092.92"/><ellipse cx="568.5872" cy="1123.0528" fill="#FFFFFF" rx="9" ry="9" style="stroke:#000000;stroke-width:1;"/><path d="M571.5559,1128.6934 Q570.9778,1128.9903 570.3372,1129.1309 Q569.6965,1129.2872 568.9934,1129.2872 Q566.4934,1129.2872 565.1653,1127.6466 Q563.8528,1125.9903 563.8528,1122.8653 Q563.8528,1119.7403 565.1653,1118.0841 Q566.4934,1116.4278 568.9934,1116.4278 Q569.6965,1116.4278 570.3372,1116.5841 Q570.9934,1116.7403 571.5559,1117.0372 L571.5559,1119.7559 Q570.9309,1119.1778 570.3372,1118.9122 Q569.7434,1118.6309 569.1184,1118.6309 Q567.7747,1118.6309 567.0872,1119.7091 Q566.3997,1120.7716 566.3997,1122.8653 Q566.3997,1124.9591 567.0872,1126.0372 Q567.7747,1127.0997 569.1184,1127.0997 Q569.7434,1127.0997 570.3372,1126.8341 Q570.9309,1126.5528 571.5559,1125.9747 L571.5559,1128.6934 Z " fill="#000000"/><text fill="#000000" font-family="Verdana" font-size="12" font-style="italic" lengthAdjust="spacing" textLength="101.3555" x="658.073" y="1114.0587">&#171;HostedService&#187;</text><text fill="#000000" font-family="Verdana" font-size="14" lengthAdjust="spacing" textLength="235.3271" x="591.0872" y="1139.8839">FileProcessingBackgroundService</text><line style="stroke:#000000;stroke-width:1;" x1="480.49" x2="909.5115" y1="1153.1856" y2="1153.1856"/><text fill="#000000" font-family="Verdana" font-size="14" lengthAdjust="spacing" textLength="238.9365" x="490.49" y="1175.1807">-_fileQueue : IFileQueueConsumer</text><text fill="#000000" font-family="Verdana" font-size="14" lengthAdjust="spacing" textLength="272.7744" x="490.49" y="1201.4776">-_fileParser : IAsyncFileParser&lt;object&gt;</text><text fill="#000000" font-family="Verdana" font-size="14" lengthAdjust="spacing" textLength="243.8105" x="490.49" y="1227.7745">-_stateStore : IInventoryStateStore</text><text fill="#000000" font-family="Verdana" font-size="14" lengthAdjust="spacing" textLength="334.2773" x="490.49" y="1254.0714">-_kpiCalculators : IEnumerable&lt;IKpiCalculator&gt;</text><text fill="#000000" font-family="Verdana" font-size="14" lengthAdjust="spacing" textLength="328.7949" x="490.49" y="1280.3682">-_idempotencyRegistry : IIdempotencyRegistry</text><text fill="#000000" font-family="Verdana" font-size="14" lengthAdjust="spacing" textLength="271.5371" x="490.49" y="1306.6651">-_reportRenderer : IKpiReportRenderer</text><line style="stroke:#000000;stroke-width:1;" x1="480.49" x2="909.5115" y1="1318.9669" y2="1318.9669"/><text fill="#000000" font-family="Verdana" font-size="14" lengthAdjust="spacing" textLength="409.0215" x="490.49" y="1340.962">#ExecuteAsync(stoppingToken: CancellationToken) : Task</text><text fill="#000000" font-family="Verdana" font-size="14" lengthAdjust="spacing" textLength="276.9033" x="490.49" y="1367.2589">-ProcessDataStreamingAsync(...) : Task</text><text fill="#000000" font-family="Verdana" font-size="14" lengthAdjust="spacing" textLength="276.2949" x="490.49" y="1393.5557">-CalculateAndRenderKpisAsync() : Task</text></g><g class="entity" data-qualified-name="Infrastructure . Application Pipeline.SLOW-PATH .CPU.RAM Bound..GMN23" data-source-line="70" id="ent0024"><path d="M601.23,977.53 L601.23,1042.9284 A0,0 0 0 0 601.23,1042.9284 L751.87,1042.9284 L755.87,1092.47 L759.87,1042.9284 L910.7779,1042.9284 A0,0 0 0 0 910.7779,1042.9284 L910.7779,987.53 L900.7779,977.53 L601.23,977.53 A0,0 0 0 0 601.23,977.53" fill="#FFFFFF" style="stroke:#000000;stroke-width:1;"/><path d="M900.7779,977.53 L900.7779,987.53 L910.7779,987.53 L900.7779,977.53" fill="#FFFFFF" style="stroke:#000000;stroke-width:1;"/><text fill="#000000" font-family="Verdana" font-size="13" lengthAdjust="spacing" textLength="230.5723" x="612.23" y="999.5969">Nh&#7841;c tr&#432;&#7903;ng &#273;i&#7873;u ph&#7889;i lu&#7891;ng ng&#7847;m.</text><text fill="#000000" font-family="Verdana" font-size="13" lengthAdjust="spacing" textLength="278.5479" x="612.23" y="1014.7297">X&#7917; l&#253; n&#7873;n tu&#7847;n t&#7921; b&#7857;ng IAsyncEnumerable.</text><text fill="#000000" font-family="Verdana" font-size="13" lengthAdjust="spacing" textLength="252.4272" x="612.23" y="1029.8625">T&#7889;i &#432;u RAM tuy&#7879;t &#273;&#7889;i (Zero Allocation).</text></g><!--class IAsyncFileParser--><g class="entity" data-qualified-name="Infrastructure . Application Pipeline.File Parsers.IAsyncFileParser" data-source-line="77" id="ent0027"><rect fill="#FFFFFF" height="78.5938" rx="2.5" ry="2.5" style="stroke:#000000;stroke-width:1;" width="598.4473" x="395.78" y="1568.86"/><ellipse cx="603.3938" cy="1587.0084" fill="#FFFFFF" rx="9" ry="9" style="stroke:#000000;stroke-width:1;"/><path d="M599.3156,1582.7741 L599.3156,1580.6178 L606.7063,1580.6178 L606.7063,1582.7741 L604.2375,1582.7741 L604.2375,1590.8522 L606.7063,1590.8522 L606.7063,1593.0084 L599.3156,1593.0084 L599.3156,1590.8522 L601.7844,1590.8522 L601.7844,1582.7741 L599.3156,1582.7741 Z " fill="#000000"/><text fill="#000000" font-family="Verdana" font-size="14" font-style="italic" lengthAdjust="spacing" textLength="114.7412" x="625.8938" y="1591.8551">IAsyncFileParser</text><rect fill="#FFFFFF" height="25.9688" style="stroke:#000000;stroke-width:1;stroke-dasharray:2,2;" width="48.9785" x="948.2488" y="1565.86"/><text fill="#000000" font-family="Verdana" font-size="12" font-style="italic" lengthAdjust="spacing" textLength="36.9785" x="954.2488" y="1582.9987">object</text><line style="stroke:#000000;stroke-width:1;" x1="396.78" x2="993.2273" y1="1605.1569" y2="1605.1569"/><line style="stroke:#000000;stroke-width:1;" x1="396.78" x2="993.2273" y1="1613.1569" y2="1613.1569"/><text fill="#000000" font-family="Verdana" font-size="14" lengthAdjust="spacing" textLength="576.4473" x="406.78" y="1635.152">+ParseAsync(filePath: string, ct: CancellationToken) : IAsyncEnumerable&lt;object&gt;</text></g><!--class XeroInvoiceStreamingAdapter--><g class="entity" data-qualified-name="Infrastructure . Application Pipeline.File Parsers.XeroInvoiceStreamingAdapter" data-source-line="80" id="ent0028"><rect fill="#FFFFFF" height="78.5938" rx="2.5" ry="2.5" style="stroke:#000000;stroke-width:1;" width="343.6309" x="523.18" y="1697.46"/><ellipse cx="580.7567" cy="1715.6084" fill="#FFFFFF" rx="9" ry="9" style="stroke:#000000;stroke-width:1;"/><path d="M583.7254,1721.2491 Q583.1473,1721.5459 582.5067,1721.6866 Q581.866,1721.8428 581.1629,1721.8428 Q578.6629,1721.8428 577.3348,1720.2022 Q576.0223,1718.5459 576.0223,1715.4209 Q576.0223,1712.2959 577.3348,1710.6397 Q578.6629,1708.9834 581.1629,1708.9834 Q581.866,1708.9834 582.5067,1709.1397 Q583.1629,1709.2959 583.7254,1709.5928 L583.7254,1712.3116 Q583.1004,1711.7334 582.5067,1711.4678 Q581.9129,1711.1866 581.2879,1711.1866 Q579.9442,1711.1866 579.2567,1712.2647 Q578.5692,1713.3272 578.5692,1715.4209 Q578.5692,1717.5147 579.2567,1718.5928 Q579.9442,1719.6553 581.2879,1719.6553 Q581.9129,1719.6553 582.5067,1719.3897 Q583.1004,1719.1084 583.7254,1718.5303 L583.7254,1721.2491 Z " fill="#000000"/><text fill="#000000" font-family="Verdana" font-size="14" lengthAdjust="spacing" textLength="210.9775" x="603.2567" y="1720.4551">XeroInvoiceStreamingAdapter</text><line style="stroke:#000000;stroke-width:1;" x1="524.18" x2="865.8109" y1="1733.7569" y2="1733.7569"/><text fill="#000000" font-family="Verdana" font-size="14" lengthAdjust="spacing" textLength="321.6309" x="534.18" y="1755.752">-_jsonSerializerOptions : JsonSerializerOptions</text><line style="stroke:#000000;stroke-width:1;" x1="524.18" x2="865.8109" y1="1768.0538" y2="1768.0538"/></g><!--class IInventoryStateStore--><g class="entity" data-qualified-name="Infrastructure . Application Pipeline.Core . Application State.IInventoryStateStore" data-source-line="87" id="ent0031"><rect fill="#FFFFFF" height="76.2656" rx="2.5" ry="2.5" style="stroke:#000000;stroke-width:1;" width="183.3662" x="1286.32" y="1211.26"/><ellipse cx="1299.32" cy="1241.3928" fill="#FFFFFF" rx="9" ry="9" style="stroke:#000000;stroke-width:1;"/><path d="M1295.2419,1237.1584 L1295.2419,1235.0022 L1302.6325,1235.0022 L1302.6325,1237.1584 L1300.1638,1237.1584 L1300.1638,1245.2366 L1302.6325,1245.2366 L1302.6325,1247.3928 L1295.2419,1247.3928 L1295.2419,1245.2366 L1297.7106,1245.2366 L1297.7106,1237.1584 L1295.2419,1237.1584 Z " fill="#000000"/><text fill="#000000" font-family="Verdana" font-size="12" font-style="italic" lengthAdjust="spacing" textLength="42.7207" x="1367.6428" y="1232.3987">&#171;Core&#187;</text><text fill="#000000" font-family="Verdana" font-size="14" font-style="italic" lengthAdjust="spacing" textLength="145.3662" x="1316.32" y="1258.2239">IInventoryStateStore</text><line style="stroke:#000000;stroke-width:1;" x1="1287.32" x2="1468.6862" y1="1271.5256" y2="1271.5256"/><line style="stroke:#000000;stroke-width:1;" x1="1287.32" x2="1468.6862" y1="1279.5256" y2="1279.5256"/></g><!--class IKpiCalculator--><g class="entity" data-qualified-name="Infrastructure . Application Pipeline.Core . Application State.IKpiCalculator" data-source-line="88" id="ent0032"><rect fill="#FFFFFF" height="76.2656" rx="2.5" ry="2.5" style="stroke:#000000;stroke-width:1;" width="135.1797" x="1569.41" y="1211.26"/><ellipse cx="1582.41" cy="1241.3928" fill="#FFFFFF" rx="9" ry="9" style="stroke:#000000;stroke-width:1;"/><path d="M1578.3319,1237.1584 L1578.3319,1235.0022 L1585.7225,1235.0022 L1585.7225,1237.1584 L1583.2538,1237.1584 L1583.2538,1245.2366 L1585.7225,1245.2366 L1585.7225,1247.3928 L1578.3319,1247.3928 L1578.3319,1245.2366 L1580.8006,1245.2366 L1580.8006,1237.1584 L1578.3319,1237.1584 Z " fill="#000000"/><text fill="#000000" font-family="Verdana" font-size="12" font-style="italic" lengthAdjust="spacing" textLength="81.7324" x="1607.1336" y="1232.3987">&#171;Application&#187;</text><text fill="#000000" font-family="Verdana" font-size="14" font-style="italic" lengthAdjust="spacing" textLength="97.1797" x="1599.41" y="1258.2239">IKpiCalculator</text><line style="stroke:#000000;stroke-width:1;" x1="1570.41" x2="1703.5897" y1="1271.5256" y2="1271.5256"/><line style="stroke:#000000;stroke-width:1;" x1="1570.41" x2="1703.5897" y1="1279.5256" y2="1279.5256"/></g><!--class IKpiReportRenderer--><g class="entity" data-qualified-name="Infrastructure . Application Pipeline.Core . Application State.IKpiReportRenderer" data-source-line="89" id="ent0033"><rect fill="#FFFFFF" height="76.2656" rx="2.5" ry="2.5" style="stroke:#000000;stroke-width:1;" width="175.9629" x="1010.02" y="1211.26"/><ellipse cx="1023.02" cy="1241.3928" fill="#FFFFFF" rx="9" ry="9" style="stroke:#000000;stroke-width:1;"/><path d="M1018.9419,1237.1584 L1018.9419,1235.0022 L1026.3325,1235.0022 L1026.3325,1237.1584 L1023.8638,1237.1584 L1023.8638,1245.2366 L1026.3325,1245.2366 L1026.3325,1247.3928 L1018.9419,1247.3928 L1018.9419,1245.2366 L1021.4106,1245.2366 L1021.4106,1237.1584 L1018.9419,1237.1584 Z " fill="#000000"/><text fill="#000000" font-family="Verdana" font-size="12" font-style="italic" lengthAdjust="spacing" textLength="81.7324" x="1068.1352" y="1232.3987">&#171;Application&#187;</text><text fill="#000000" font-family="Verdana" font-size="14" font-style="italic" lengthAdjust="spacing" textLength="137.9629" x="1040.02" y="1258.2239">IKpiReportRenderer</text><line style="stroke:#000000;stroke-width:1;" x1="1011.02" x2="1184.9829" y1="1271.5256" y2="1271.5256"/><line style="stroke:#000000;stroke-width:1;" x1="1011.02" x2="1184.9829" y1="1279.5256" y2="1279.5256"/></g><!--reverse link IFileMonitorService to InventoryFileSystemWatcher--><g class="link" data-entity-1="ent0004" data-entity-2="ent0005" data-link-type="extension" data-source-line="24" id="lnk6"><path codeLine="24" d="M166.83,232.33 C166.83,247.69 166.83,246.8 166.83,263.4" fill="none" id="IFileMonitorService-backto-InventoryFileSystemWatcher" style="stroke:#000000;stroke-width:1;stroke-dasharray:7,7;"/><polygon fill="none" points="166.83,214.33,160.83,232.33,172.83,232.33,166.83,214.33" style="stroke:#000000;stroke-width:1;"/></g><!--reverse link IFileQueueProducer to FileProcessingChannel--><g class="link" data-entity-1="ent0012" data-entity-2="ent0014" data-link-type="extension" data-source-line="42" id="lnk15"><path codeLine="42" d="M424.99,734.2 C424.99,749.55 424.99,749.33 424.99,765.67" fill="none" id="IFileQueueProducer-backto-FileProcessingChannel" style="stroke:#000000;stroke-width:1;stroke-dasharray:7,7;"/><polygon fill="none" points="424.99,716.2,418.99,734.2,430.99,734.2,424.99,716.2" style="stroke:#000000;stroke-width:1;"/></g><!--reverse link IFileQueueConsumer to FileProcessingChannel--><g class="link" data-entity-1="ent0013" data-entity-2="ent0014" data-link-type="extension" data-source-line="43" id="lnk16"><path codeLine="43" d="M586.86,734.2 C586.86,749.55 586.86,749.33 586.86,765.67" fill="none" id="IFileQueueConsumer-backto-FileProcessingChannel" style="stroke:#000000;stroke-width:1;stroke-dasharray:7,7;"/><polygon fill="none" points="586.86,716.2,580.86,734.2,592.86,734.2,586.86,716.2" style="stroke:#000000;stroke-width:1;"/></g><!--reverse link IIdempotencyRegistry to InMemoryIdempotencyRegistry--><g class="link" data-entity-1="ent0018" data-entity-2="ent0019" data-link-type="extension" data-source-line="53" id="lnk20"><path codeLine="53" d="M1356,734.2 C1356,749.55 1356,749.33 1356,765.67" fill="none" id="IIdempotencyRegistry-backto-InMemoryIdempotencyRegistry" style="stroke:#000000;stroke-width:1;stroke-dasharray:7,7;"/><polygon fill="none" points="1356,716.2,1350,734.2,1362,734.2,1356,716.2" style="stroke:#000000;stroke-width:1;"/></g><!--reverse link IAsyncFileParser to XeroInvoiceStreamingAdapter--><g class="link" data-entity-1="ent0027" data-entity-2="ent0028" data-link-type="extension" data-source-line="83" id="lnk29"><path codeLine="83" d="M695,1665.79 C695,1681.44 695,1681.38 695,1697.03" fill="none" id="IAsyncFileParser-backto-XeroInvoiceStreamingAdapter" style="stroke:#000000;stroke-width:1;stroke-dasharray:7,7;"/><polygon fill="none" points="695,1647.79,689,1665.79,701,1665.79,695,1647.79" style="stroke:#000000;stroke-width:1;"/></g><!--link InventoryFileSystemWatcher to IFileQueueProducer--><g class="link" data-entity-1="ent0005" data-entity-2="ent0012" data-link-type="dependency" data-source-line="93" id="lnk34"><path codeLine="93" d="M255,421.79 C255,489.51 255,578.16 255,631" fill="none" id="InventoryFileSystemWatcher-to-IFileQueueProducer" style="stroke:#000000;stroke-width:1;stroke-dasharray:7,7;"/><polygon fill="#000000" points="255,637,259,628,255,632,251,628,255,637" style="stroke:#000000;stroke-width:1;"/><text fill="#000000" font-family="Verdana" font-size="13" lengthAdjust="spacing" textLength="110.2524" x="112.709" y="505.4569">Pushes file paths</text><text fill="#000000" font-family="Verdana" font-size="13" lengthAdjust="spacing" textLength="154.8765" x="86.2646" y="520.5897">(Backpressure enabled)</text></g><!--reverse link IFileQueueConsumer to FileProcessingBackgroundService--><g class="link" data-entity-1="ent0013" data-entity-2="ent0022" data-link-type="dependency" data-source-line="95" id="lnk36"><path codeLine="95" d="M952.5,722.37 C952.5,833.4 952.5,1133.05 952.5,1133.05 C952.5,1133.05 935.77,1133.05 910.84,1133.05" fill="none" id="IFileQueueConsumer-backto-FileProcessingBackgroundService" style="stroke:#000000;stroke-width:1;stroke-dasharray:7,7;"/><polygon fill="#000000" points="952.5,716.37,948.5,725.37,952.5,721.37,956.5,725.37,952.5,716.37" style="stroke:#000000;stroke-width:1;"/><text fill="#000000" font-family="Verdana" font-size="13" lengthAdjust="spacing" textLength="63.4258" x="999.7375" y="921.6069">Reads via</text><text fill="#000000" font-family="Verdana" font-size="13" lengthAdjust="spacing" textLength="121.1069" x="966.7646" y="936.7397">IAsyncEnumerable</text></g><!--reverse link IIdempotencyRegistry to FileProcessingBackgroundService--><g class="link" data-entity-1="ent0018" data-entity-2="ent0022" data-link-type="dependency" data-source-line="96" id="lnk38"><path codeLine="96" d="M1213.86,677.05 C1149.67,677.05 1092.96,677.05 1092.96,677.05 C1092.96,677.05 1092.96,1172.05 1092.96,1172.05 C1092.96,1172.05 1004.42,1172.05 910.87,1172.05" fill="none" id="IIdempotencyRegistry-backto-FileProcessingBackgroundService" style="stroke:#000000;stroke-width:1;stroke-dasharray:7,7;"/><polygon fill="#000000" points="1219.86,677.05,1210.86,673.05,1214.86,677.05,1210.86,681.05,1219.86,677.05" style="stroke:#000000;stroke-width:1;"/><text fill="#000000" font-family="Verdana" font-size="13" lengthAdjust="spacing" textLength="127.6069" x="960.2246" y="970.2169">1. Checks duplicate</text><text fill="#000000" font-family="Verdana" font-size="13" lengthAdjust="spacing" textLength="106.0186" x="966.8865" y="985.3497">(Atomic TryAdd)</text></g><!--link FileProcessingBackgroundService to IAsyncFileParser--><g class="link" data-entity-1="ent0022" data-entity-2="ent0027" data-link-type="dependency" data-source-line="97" id="lnk39"><path codeLine="97" d="M695,1406.23 C695,1466 695,1523.17 695,1562.61" fill="none" id="FileProcessingBackgroundService-to-IAsyncFileParser" style="stroke:#000000;stroke-width:1;stroke-dasharray:7,7;"/><polygon fill="#000000" points="695,1568.61,699,1559.61,695,1563.61,691,1559.61,695,1568.61" style="stroke:#000000;stroke-width:1;"/><text fill="#000000" font-family="Verdana" font-size="13" lengthAdjust="spacing" textLength="166.9624" x="514.2646" y="1478.4869">2. Parses JSON Streaming</text></g><!--link FileProcessingBackgroundService to IInventoryStateStore--><g class="link" data-entity-1="ent0022" data-entity-2="ent0031" data-link-type="dependency" data-source-line="99" id="lnk40"><path codeLine="99" d="M910.64,1327.05 C1110.79,1327.05 1378,1327.05 1378,1327.05 C1378,1327.05 1378,1313.33 1378,1293.77" fill="none" id="FileProcessingBackgroundService-to-IInventoryStateStore" style="stroke:#000000;stroke-width:1;stroke-dasharray:7,7;"/><polygon fill="#000000" points="1378,1287.77,1374,1296.77,1378,1292.77,1382,1296.77,1378,1287.77" style="stroke:#000000;stroke-width:1;"/><text fill="#000000" font-family="Verdana" font-size="13" lengthAdjust="spacing" textLength="143.438" x="1007.2246" y="1318.1169">3. Updates Core State</text></g><!--link FileProcessingBackgroundService to IKpiCalculator--><g class="link" data-entity-1="ent0022" data-entity-2="ent0032" data-link-type="dependency" data-source-line="100" id="lnk41"><path codeLine="100" d="M910.82,1367.05 C1188.91,1367.05 1637,1367.05 1637,1367.05 C1637,1367.05 1637,1328.23 1637,1293.92" fill="none" id="FileProcessingBackgroundService-to-IKpiCalculator" style="stroke:#000000;stroke-width:1;stroke-dasharray:7,7;"/><polygon fill="#000000" points="1637,1287.92,1633,1296.92,1637,1292.92,1641,1296.92,1637,1287.92" style="stroke:#000000;stroke-width:1;"/><text fill="#000000" font-family="Verdana" font-size="13" lengthAdjust="spacing" textLength="101.1563" x="1198.7346" y="1358.1169">4. Triggers KPIs</text></g><!--link FileProcessingBackgroundService to IKpiReportRenderer--><g class="link" data-entity-1="ent0022" data-entity-2="ent0033" data-link-type="dependency" data-source-line="101" id="lnk42"><path codeLine="101" d="M910.95,1250.05 C945.91,1250.05 974.28,1250.05 1003.83,1250.05" fill="none" id="FileProcessingBackgroundService-to-IKpiReportRenderer" style="stroke:#000000;stroke-width:1;stroke-dasharray:7,7;"/><polygon fill="#000000" points="1009.83,1250.05,1000.83,1246.05,1004.83,1250.05,1000.83,1254.05,1009.83,1250.05" style="stroke:#000000;stroke-width:1;"/><text fill="#000000" font-family="Verdana" font-size="13" lengthAdjust="spacing" textLength="178.9404" x="871.1546" y="1268.1169">5. Render &amp; Export Reports</text></g><?plantuml-src dLTFRnj55B_xKpnS2HBHR5jeIh4iIqvYgswQsCGkBGW9JMR7tgdNCyliR5e3bK0ze28Xg3XoQ2iE1GcaLd20M9mS-Zty2U0Zy6RMSNRNwyHq3ydwpNlp_ltUdtrDUsp08F095uMmpqL051a0bOD02YPqMmzz1efHJKJFPmaMdmkcXm43gRGd2uKtuD_7FppvvuzlOVom1JUg7pHlTahGENeWUZ2O73uL7lGzEJdy4N_JyLFgWUZXdN0mVWBkPFGDXQD7az43FFiD6SU_ur6F4m7Kaz1XztH2jP0k2ra0bovUJ50L4Nr3NKyIMyHrELwrddJE9s5OrLhn_KYp1fMYpJzbSB5G20Zjanw3OaDq5GcrYgYE58FNeHe4FgT4SocWnGDcl2_2PuK2u3CJgrVRdRLMjNCDLXeNch0X8-6k5k5SVQjUgzUG7QOF5vgfBg4C6dNkinqfk9QgpTG1Hze9dtdUXBOcIazvq9cLLIZ1WUJk79iCJkEwFtkp4O26EC0CIpKq9hI7eMQ3MqHJZwcC1MlmyISHYrXBIJUYU5oApNulISnAt8sl2f7v1WzrUKv9vLMyN8CswR9hHBW-ssLtpQKruyLA5zzQH7ibmBIXk97kaB2VutrUoCkVEyuf0Pd92gaPO9n1TfTXDy_HTvF3duTW34IaQCyWNeAD7T39w0K5uH7XEIcXxRW2zdr9-w0znOXhc9yHQBPFE9bmhKM5sC4q66EBOALZfKr831BVhMtKgedypjWtqGZ1_11MB6oP2njHjyjKZD_QLcqpWueCXbDWoB362Qu9YoB3N0s7WkRcx7tYHooLk7Jo5cdUb2AC1Wiqxs40ghvlcCDODTKbs2I2Cj-tHTsHVIQC_eOzhmbp5zdtMJashNAAEN4rcSlHVSh24FcdqOHokSrDuzHIL2evjc6Xq2ah6XI_BQ4o9-8MmRb6B92SHMm9oIcsKe1fk0o7X6Q23X4YjOtwUdrZCKGIt7kiXmr13NDJrL73gkjQQA28qBpBcKe2P5zA_ynaDCGE6s1bvcbT8YL170ZcMiIOp4X18wNGdYrE3Lw86axJT1xsXvgTcgnSA-A6iz3CJD-QA-uRpLlJIRFPkdbXhxfpCcrgL-jNw-i9p_80ke4tzPGHcRN0yZM97UFuzrniC2xTO-oa9i0naFAuMqI5yS2mTLMVaSfo_mvk5PMiKAY9PZZ9bDKnQx7j6Jahq0_u9l5fX7KixRHf98gtiPqydLF6Sn9JoirNLbAn0FUUFMp0JCN-eQQz534bSWvgznZ5TIDkFo6Ea02pODlEWauqrmJNO9g-BQ99MsDN7-0LyOMEuooGENQVLOKRcuQMJhlWAKCoEUZEG4vAuQw7knu5hLu-dumUumWxUiGdeoyZ2Bp9w147FvgClaUow4qEdmtIG-_sPFGh-EE_GA2401qX2_x36GdxayCNA9NjpcdvZjNmyda4fXvqD9oClj9shKJooeTCIS0f8ECrRdN9CMgSXnYpeHc5DHoXx-IkSiL562y22USAO6xBi-JymNWUbfzNsRhARdstCGnOLX8JTu8XbmGwR-sx4-9op1GdFcx8gXaOrQR6hkVHyrQjhDEsxPrYGcuADkNS3cxxWKd7vVgL-fNypJgdUM2JCvTLAddygLw1d0bz2mNI9PyhDFNcvFjeU_om2LlZBngmy_TF3UYClzujuUy_4T-EutBpiONIZbF1nOyCSLty1HBaolGxIMEToVml9HlvnSizAf5txVqvQqG9YW2jAFHmxirMrl0Z0RWNOZu2XKt0V18nOT3chW8KhJxxvwmHupXHaDOxMqAiNhEdXN30YT6NHVQnfhEL-AohhPf6Rdz7HPSSNBOOxOVWHd6-c7MngkM0q-aIihgynbb0itYtsjvouk8EuNgxkGippF_Fs2dUywP-vI3RQdhRWPk1YxGGRD7Oy-NTED6GhWLxzsK7uy9xFVDDjzrgXAzuxLvsSkBLwmx41AposZrp3Z6RLNB_Fm00?></g></svg>