<svg xmlns="http://www.w3.org/2000/svg" xmlns:xlink="http://www.w3.org/1999/xlink" contentStyleType="text/css" data-diagram-type="CLASS" height="618px" preserveAspectRatio="none" style="width:2287px;height:618px;background:#FFFFFF;" version="1.1" viewBox="0 0 2287 618" width="2287px" zoomAndPan="magnify"><?plantuml 1.2026.3beta4?><defs/><g><!--cluster Infrastructure Layer--><g class="cluster" data-qualified-name="Infrastructure Layer" data-source-line="8" id="ent0002"><rect fill="#FFFFFF" height="404.28" rx="2.5" ry="2.5" style="stroke:#000000;stroke-width:1;" width="426" x="12" y="12"/><text fill="#000000" font-family="Verdana" font-size="14" font-weight="700" lengthAdjust="spacing" textLength="159.6396" x="145.1802" y="26.9951">Infrastructure Layer</text></g><!--cluster BackgroundTasks (Consumer)--><g class="cluster" data-qualified-name="Infrastructure Layer.BackgroundTasks .Consumer." data-source-line="9" id="ent0003"><rect fill="#E8F8F5" height="337.28" rx="2.5" ry="2.5" style="stroke:#000000;stroke-width:1;" width="378" x="36" y="55"/><text fill="#000000" font-family="Verdana" font-size="14" font-weight="700" lengthAdjust="spacing" textLength="236.0176" x="106.9912" y="69.9951">BackgroundTasks (Consumer)</text></g><!--cluster Application Layer--><g class="cluster" data-qualified-name="Application Layer" data-source-line="25" id="ent0008"><rect fill="#FFFFFF" height="403.78" rx="2.5" ry="2.5" style="stroke:#000000;stroke-width:1;" width="1811" x="462" y="200.86"/><text fill="#000000" font-family="Verdana" font-size="14" font-weight="700" lengthAdjust="spacing" textLength="138.0654" x="1298.4673" y="215.8551">Application Layer</text></g><!--cluster Kpi (Core Logic)--><g class="cluster" data-qualified-name="Application Layer.Kpi .Core Logic." data-source-line="26" id="ent0009"><rect fill="#FEF9E7" height="336.78" rx="2.5" ry="2.5" style="stroke:#000000;stroke-width:1;" width="1763" x="486" y="243.86"/><text fill="#000000" font-family="Verdana" font-size="14" font-weight="700" lengthAdjust="spacing" textLength="126.1641" x="1304.418" y="258.8551">Kpi (Core Logic)</text></g><!--class FileProcessingBackgroundService--><g class="entity" data-qualified-name="Infrastructure Layer.BackgroundTasks .Consumer..FileProcessingBackgroundService" data-source-line="10" id="ent0004"><rect fill="#FFFFFF" height="88.8594" rx="2.5" ry="2.5" style="stroke:#000000;stroke-width:1;" width="346.2773" x="51.86" y="90"/><ellipse cx="103.5851" cy="110.1328" fill="#FFFFFF" rx="9" ry="9" style="stroke:#000000;stroke-width:1;"/><path d="M106.5538,115.7734 Q105.9757,116.0703 105.3351,116.2109 Q104.6945,116.3672 103.9913,116.3672 Q101.4913,116.3672 100.1632,114.7266 Q98.8507,113.0703 98.8507,109.9453 Q98.8507,106.8203 100.1632,105.1641 Q101.4913,103.5078 103.9913,103.5078 Q104.6945,103.5078 105.3351,103.6641 Q105.9913,103.8203 106.5538,104.1172 L106.5538,106.8359 Q105.9288,106.2578 105.3351,105.9922 Q104.7413,105.7109 104.1163,105.7109 Q102.7726,105.7109 102.0851,106.7891 Q101.3976,107.8516 101.3976,109.9453 Q101.3976,112.0391 102.0851,113.1172 Q102.7726,114.1797 104.1163,114.1797 Q104.7413,114.1797 105.3351,113.9141 Q105.9288,113.6328 106.5538,113.0547 L106.5538,115.7734 Z " fill="#000000"/><text fill="#000000" font-family="Verdana" font-size="12" font-style="italic" lengthAdjust="spacing" textLength="101.3555" x="188.0709" y="106.1387">&#171;HostedService&#187;</text><text fill="#000000" font-family="Verdana" font-size="14" lengthAdjust="spacing" textLength="235.3271" x="121.0851" y="121.9639">FileProcessingBackgroundService</text><line style="stroke:#000000;stroke-width:1;" x1="52.86" x2="397.1373" y1="130.2656" y2="130.2656"/><text fill="#000000" font-family="Verdana" font-size="14" lengthAdjust="spacing" textLength="334.2773" x="57.86" y="147.2607">-_kpiCalculators : IEnumerable&lt;IKpiCalculator&gt;</text><line style="stroke:#000000;stroke-width:1;" x1="52.86" x2="397.1373" y1="154.5625" y2="154.5625"/><text fill="#000000" font-family="Verdana" font-size="14" lengthAdjust="spacing" textLength="276.2949" x="57.86" y="171.5576">-CalculateAndRenderKpisAsync() : Task</text></g><g class="entity" data-qualified-name="Infrastructure Layer.BackgroundTasks .Consumer..GMN5" data-source-line="16" id="ent0006"><path d="M66.65,290.62 L66.65,376.2841 A0,0 0 0 0 66.65,376.2841 L383.3492,376.2841 A0,0 0 0 0 383.3492,376.2841 L383.3492,300.62 L373.3492,290.62 L229,290.62 L225,179.09 L221,290.62 L66.65,290.62 A0,0 0 0 0 66.65,290.62" fill="#FFFFFF" style="stroke:#000000;stroke-width:1;"/><path d="M373.3492,290.62 L373.3492,300.62 L383.3492,300.62 L373.3492,290.62" fill="#FFFFFF" style="stroke:#000000;stroke-width:1;"/><text fill="#000000" font-family="Verdana" font-size="13" font-weight="700" lengthAdjust="spacing" textLength="200.8525" x="72.65" y="307.6869">Nh&#7841;c tr&#432;&#7903;ng (Orchestrator)</text><text fill="#000000" font-family="Verdana" font-size="13" lengthAdjust="spacing" textLength="284.8574" x="72.65" y="322.8197">Nh&#7901; c&#243; Dependency Injection (DI) c&#7911;a .NET,</text><text fill="#000000" font-family="Verdana" font-size="13" lengthAdjust="spacing" textLength="291.5669" x="72.65" y="337.9525">n&#243; t&#7921; &#273;&#7897;ng gom T&#7844;T C&#7842; c&#225;c class implement</text><text fill="#000000" font-family="Verdana" font-size="13" lengthAdjust="spacing" textLength="289.6245" x="72.65" y="353.0853">IKpiCalculator th&#224;nh m&#7897;t List (IEnumerable).</text><text fill="#000000" font-family="Verdana" font-size="13" lengthAdjust="spacing" textLength="271.1211" x="72.65" y="368.2181">Tu&#226;n th&#7911; tuy&#7879;t &#273;&#7889;i Open/Closed Principle.</text></g><!--class IKpiCalculator--><g class="entity" data-qualified-name="Application Layer.Kpi .Core Logic..IKpiCalculator" data-source-line="28" id="ent0010"><rect fill="#FFFFFF" height="109.1875" rx="2.5" ry="2.5" style="stroke:#000000;stroke-width:1;" width="500.2705" x="893.86" y="278.86"/><ellipse cx="1091.6554" cy="292.86" fill="#FFFFFF" rx="9" ry="9" style="stroke:#000000;stroke-width:1;"/><path d="M1087.5773,288.6256 L1087.5773,286.4694 L1094.9679,286.4694 L1094.9679,288.6256 L1092.4992,288.6256 L1092.4992,296.7038 L1094.9679,296.7038 L1094.9679,298.86 L1087.5773,298.86 L1087.5773,296.7038 L1090.046,296.7038 L1090.046,288.6256 L1087.5773,288.6256 Z " fill="#000000"/><text fill="#000000" font-family="Verdana" font-size="14" font-style="italic" lengthAdjust="spacing" textLength="97.1797" x="1109.1554" y="297.7067">IKpiCalculator</text><line style="stroke:#000000;stroke-width:1;" x1="894.86" x2="1393.1305" y1="306.86" y2="306.86"/><text fill="#000000" font-family="Verdana" font-size="14" lengthAdjust="spacing" textLength="151.4092" x="899.86" y="323.8551">+Name : string &#171;get&#187;</text><line style="stroke:#000000;stroke-width:1;" x1="894.86" x2="1393.1305" y1="331.1569" y2="331.1569"/><text fill="#000000" font-family="Verdana" font-size="14" lengthAdjust="spacing" textLength="488.2705" x="899.86" y="348.152">+Calculate(snapshots: IReadOnlyCollection&lt;ProductStateSnapshot&gt;,</text><text fill="#000000" font-family="Verdana" font-size="14" lengthAdjust="spacing" textLength="197.5449" x="908.7604" y="364.4489">startDate: DateTimeOffset?,</text><text fill="#000000" font-family="Verdana" font-size="14" lengthAdjust="spacing" textLength="249.0811" x="908.7604" y="380.7457">endDate: DateTimeOffset?) : object</text></g><g class="entity" data-qualified-name="Application Layer.Kpi .Core Logic..GMN11" data-source-line="34" id="ent0012"><path d="M1474.07,290.62 L1474.07,329.64 L1394.52,333.64 L1474.07,337.64 L1474.07,376.2841 A0,0 0 0 0 1474.07,376.2841 L1833.9269,376.2841 A0,0 0 0 0 1833.9269,376.2841 L1833.9269,300.62 L1823.9269,290.62 L1474.07,290.62 A0,0 0 0 0 1474.07,290.62" fill="#FFFFFF" style="stroke:#000000;stroke-width:1;"/><path d="M1823.9269,290.62 L1823.9269,300.62 L1833.9269,300.62 L1823.9269,290.62" fill="#FFFFFF" style="stroke:#000000;stroke-width:1;"/><text fill="#000000" font-family="Verdana" font-size="13" font-weight="700" lengthAdjust="spacing" textLength="158.2026" x="1480.07" y="307.6869">1. B&#7843;o v&#7879; d&#7919; li&#7879;u g&#7889;c:</text><text fill="#000000" font-family="Verdana" font-size="13" lengthAdjust="spacing" textLength="174.167" x="1642.405" y="307.6869">D&#249;ng IReadOnlyCollection.</text><text fill="#000000" font-family="Verdana" font-size="13" font-weight="700" lengthAdjust="spacing" textLength="95.2212" x="1480.07" y="322.8197">2. H&#7895; tr&#7907; l&#7885;c:</text><text fill="#000000" font-family="Verdana" font-size="13" lengthAdjust="spacing" textLength="239.5034" x="1579.4235" y="322.8197">C&#243; s&#7861;n startDate/endDate (nullable).</text><text fill="#000000" font-family="Verdana" font-size="13" font-weight="700" lengthAdjust="spacing" textLength="139.1343" x="1480.07" y="337.9525">3. C&#417; ch&#7871; Fail-Soft:</text><text fill="#000000" font-family="Verdana" font-size="13" lengthAdjust="spacing" textLength="144.3076" x="1623.3366" y="337.9525">Tr&#7843; v&#7873; ki&#7875;u 'object' &#273;&#7875;</text><text fill="#000000" font-family="Verdana" font-size="13" lengthAdjust="spacing" textLength="253.7539" x="1480.07" y="353.0853">c&#243; th&#7875; linh ho&#7841;t tr&#7843; v&#7873; s&#7889; (int, decimal)</text><text fill="#000000" font-family="Verdana" font-size="13" lengthAdjust="spacing" textLength="303.71" x="1480.07" y="368.2181">ho&#7863;c tr&#7843; v&#7873; chu&#7895;i "N/A" n&#7871;u g&#7863;p l&#7895;i chia cho 0.</text></g><!--class TotalSkusCalculator--><g class="entity" data-qualified-name="Application Layer.Kpi .Core Logic..TotalSkusCalculator" data-source-line="41" id="ent0014"><rect fill="#FFFFFF" height="76.5938" rx="2.5" ry="2.5" style="stroke:#000000;stroke-width:1;" width="239.2129" x="502.39" y="488.05"/><ellipse cx="548.5814" cy="502.05" fill="#FFFFFF" rx="9" ry="9" style="stroke:#000000;stroke-width:1;"/><path d="M551.5502,507.6906 Q550.972,507.9875 550.3314,508.1281 Q549.6908,508.2844 548.9877,508.2844 Q546.4877,508.2844 545.1595,506.6437 Q543.847,504.9875 543.847,501.8625 Q543.847,498.7375 545.1595,497.0812 Q546.4877,495.425 548.9877,495.425 Q549.6908,495.425 550.3314,495.5812 Q550.9877,495.7375 551.5502,496.0344 L551.5502,498.7531 Q550.9252,498.175 550.3314,497.9094 Q549.7377,497.6281 549.1127,497.6281 Q547.7689,497.6281 547.0814,498.7062 Q546.3939,499.7687 546.3939,501.8625 Q546.3939,503.9562 547.0814,505.0344 Q547.7689,506.0969 549.1127,506.0969 Q549.7377,506.0969 550.3314,505.8312 Q550.9252,505.55 551.5502,504.9719 L551.5502,507.6906 Z " fill="#000000"/><text fill="#000000" font-family="Verdana" font-size="14" lengthAdjust="spacing" textLength="139.3301" x="566.0814" y="506.8967">TotalSkusCalculator</text><line style="stroke:#000000;stroke-width:1;" x1="503.39" x2="740.6029" y1="516.05" y2="516.05"/><text fill="#000000" font-family="Verdana" font-size="14" lengthAdjust="spacing" textLength="227.2129" x="508.39" y="533.0451">+Name : string =&gt; "Total SKUs"</text><line style="stroke:#000000;stroke-width:1;" x1="503.39" x2="740.6029" y1="540.3469" y2="540.3469"/><text fill="#000000" font-family="Verdana" font-size="14" lengthAdjust="spacing" textLength="158.1494" x="508.39" y="557.342">+Calculate(...) : object</text></g><!--class OutOfStockCalculator--><g class="entity" data-qualified-name="Application Layer.Kpi .Core Logic..OutOfStockCalculator" data-source-line="46" id="ent0015"><rect fill="#FFFFFF" height="76.5938" rx="2.5" ry="2.5" style="stroke:#000000;stroke-width:1;" width="295.418" x="821.29" y="488.05"/><ellipse cx="889.664" cy="502.05" fill="#FFFFFF" rx="9" ry="9" style="stroke:#000000;stroke-width:1;"/><path d="M892.6328,507.6906 Q892.0546,507.9875 891.414,508.1281 Q890.7734,508.2844 890.0703,508.2844 Q887.5703,508.2844 886.2421,506.6437 Q884.9296,504.9875 884.9296,501.8625 Q884.9296,498.7375 886.2421,497.0812 Q887.5703,495.425 890.0703,495.425 Q890.7734,495.425 891.414,495.5812 Q892.0703,495.7375 892.6328,496.0344 L892.6328,498.7531 Q892.0078,498.175 891.414,497.9094 Q890.8203,497.6281 890.1953,497.6281 Q888.8515,497.6281 888.164,498.7062 Q887.4765,499.7687 887.4765,501.8625 Q887.4765,503.9562 888.164,505.0344 Q888.8515,506.0969 890.1953,506.0969 Q890.8203,506.0969 891.414,505.8312 Q892.0078,505.55 892.6328,504.9719 L892.6328,507.6906 Z " fill="#000000"/><text fill="#000000" font-family="Verdana" font-size="14" lengthAdjust="spacing" textLength="151.1699" x="907.164" y="506.8967">OutOfStockCalculator</text><line style="stroke:#000000;stroke-width:1;" x1="822.29" x2="1115.708" y1="516.05" y2="516.05"/><text fill="#000000" font-family="Verdana" font-size="14" lengthAdjust="spacing" textLength="283.418" x="827.29" y="533.0451">+Name : string =&gt; "Out-of-Stock Items"</text><line style="stroke:#000000;stroke-width:1;" x1="822.29" x2="1115.708" y1="540.3469" y2="540.3469"/><text fill="#000000" font-family="Verdana" font-size="14" lengthAdjust="spacing" textLength="158.1494" x="827.29" y="557.342">+Calculate(...) : object</text></g><!--class StockValueCalculator--><g class="entity" data-qualified-name="Application Layer.Kpi .Core Logic..StockValueCalculator" data-source-line="51" id="ent0016"><rect fill="#FFFFFF" height="76.5938" rx="2.5" ry="2.5" style="stroke:#000000;stroke-width:1;" width="246.8076" x="1196.6" y="488.05"/><ellipse cx="1241.5678" cy="502.05" fill="#FFFFFF" rx="9" ry="9" style="stroke:#000000;stroke-width:1;"/><path d="M1244.5365,507.6906 Q1243.9584,507.9875 1243.3178,508.1281 Q1242.6771,508.2844 1241.974,508.2844 Q1239.474,508.2844 1238.1459,506.6437 Q1236.8334,504.9875 1236.8334,501.8625 Q1236.8334,498.7375 1238.1459,497.0812 Q1239.474,495.425 1241.974,495.425 Q1242.6771,495.425 1243.3178,495.5812 Q1243.974,495.7375 1244.5365,496.0344 L1244.5365,498.7531 Q1243.9115,498.175 1243.3178,497.9094 Q1242.724,497.6281 1242.099,497.6281 Q1240.7553,497.6281 1240.0678,498.7062 Q1239.3803,499.7687 1239.3803,501.8625 Q1239.3803,503.9562 1240.0678,505.0344 Q1240.7553,506.0969 1242.099,506.0969 Q1242.724,506.0969 1243.3178,505.8312 Q1243.9115,505.55 1244.5365,504.9719 L1244.5365,507.6906 Z " fill="#000000"/><text fill="#000000" font-family="Verdana" font-size="14" lengthAdjust="spacing" textLength="149.3721" x="1259.0678" y="506.8967">StockValueCalculator</text><line style="stroke:#000000;stroke-width:1;" x1="1197.6" x2="1442.4076" y1="516.05" y2="516.05"/><text fill="#000000" font-family="Verdana" font-size="14" lengthAdjust="spacing" textLength="234.8076" x="1202.6" y="533.0451">+Name : string =&gt; "Stock Value"</text><line style="stroke:#000000;stroke-width:1;" x1="1197.6" x2="1442.4076" y1="540.3469" y2="540.3469"/><text fill="#000000" font-family="Verdana" font-size="14" lengthAdjust="spacing" textLength="158.1494" x="1202.6" y="557.342">+Calculate(...) : object</text></g><!--class AvgInventoryAgeCalculator--><g class="entity" data-qualified-name="Application Layer.Kpi .Core Logic..AvgInventoryAgeCalculator" data-source-line="56" id="ent0017"><rect fill="#FFFFFF" height="76.5938" rx="2.5" ry="2.5" style="stroke:#000000;stroke-width:1;" width="325.2363" x="1523.38" y="488.05"/><ellipse cx="1586.3536" cy="502.05" fill="#FFFFFF" rx="9" ry="9" style="stroke:#000000;stroke-width:1;"/><path d="M1589.3224,507.6906 Q1588.7443,507.9875 1588.1036,508.1281 Q1587.463,508.2844 1586.7599,508.2844 Q1584.2599,508.2844 1582.9318,506.6437 Q1581.6193,504.9875 1581.6193,501.8625 Q1581.6193,498.7375 1582.9318,497.0812 Q1584.2599,495.425 1586.7599,495.425 Q1587.463,495.425 1588.1036,495.5812 Q1588.7599,495.7375 1589.3224,496.0344 L1589.3224,498.7531 Q1588.6974,498.175 1588.1036,497.9094 Q1587.5099,497.6281 1586.8849,497.6281 Q1585.5411,497.6281 1584.8536,498.7062 Q1584.1661,499.7687 1584.1661,501.8625 Q1584.1661,503.9562 1584.8536,505.0344 Q1585.5411,506.0969 1586.8849,506.0969 Q1587.5099,506.0969 1588.1036,505.8312 Q1588.6974,505.55 1589.3224,504.9719 L1589.3224,507.6906 Z " fill="#000000"/><text fill="#000000" font-family="Verdana" font-size="14" lengthAdjust="spacing" textLength="191.7891" x="1603.8536" y="506.8967">AvgInventoryAgeCalculator</text><line style="stroke:#000000;stroke-width:1;" x1="1524.38" x2="1847.6163" y1="516.05" y2="516.05"/><text fill="#000000" font-family="Verdana" font-size="14" lengthAdjust="spacing" textLength="313.2363" x="1529.38" y="533.0451">+Name : string =&gt; "Average Inventory Age"</text><line style="stroke:#000000;stroke-width:1;" x1="1524.38" x2="1847.6163" y1="540.3469" y2="540.3469"/><text fill="#000000" font-family="Verdana" font-size="14" lengthAdjust="spacing" textLength="158.1494" x="1529.38" y="557.342">+Calculate(...) : object</text></g><!--class AvgDailySalesCalculator--><g class="entity" data-qualified-name="Application Layer.Kpi .Core Logic..AvgDailySalesCalculator" data-source-line="61" id="ent0018"><rect fill="#FFFFFF" height="76.5938" rx="2.5" ry="2.5" style="stroke:#000000;stroke-width:1;" width="303.9766" x="1929.01" y="488.05"/><ellipse cx="1991.9836" cy="502.05" fill="#FFFFFF" rx="9" ry="9" style="stroke:#000000;stroke-width:1;"/><path d="M1994.9524,507.6906 Q1994.3743,507.9875 1993.7336,508.1281 Q1993.093,508.2844 1992.3899,508.2844 Q1989.8899,508.2844 1988.5618,506.6437 Q1987.2493,504.9875 1987.2493,501.8625 Q1987.2493,498.7375 1988.5618,497.0812 Q1989.8899,495.425 1992.3899,495.425 Q1993.093,495.425 1993.7336,495.5812 Q1994.3899,495.7375 1994.9524,496.0344 L1994.9524,498.7531 Q1994.3274,498.175 1993.7336,497.9094 Q1993.1399,497.6281 1992.5149,497.6281 Q1991.1711,497.6281 1990.4836,498.7062 Q1989.7961,499.7687 1989.7961,501.8625 Q1989.7961,503.9562 1990.4836,505.0344 Q1991.1711,506.0969 1992.5149,506.0969 Q1993.1399,506.0969 1993.7336,505.8312 Q1994.3274,505.55 1994.9524,504.9719 L1994.9524,507.6906 Z " fill="#000000"/><text fill="#000000" font-family="Verdana" font-size="14" lengthAdjust="spacing" textLength="170.5293" x="2009.4836" y="506.8967">AvgDailySalesCalculator</text><line style="stroke:#000000;stroke-width:1;" x1="1930.01" x2="2231.9866" y1="516.05" y2="516.05"/><text fill="#000000" font-family="Verdana" font-size="14" lengthAdjust="spacing" textLength="291.9766" x="1935.01" y="533.0451">+Name : string =&gt; "Average Daily Sales"</text><line style="stroke:#000000;stroke-width:1;" x1="1930.01" x2="2231.9866" y1="540.3469" y2="540.3469"/><text fill="#000000" font-family="Verdana" font-size="14" lengthAdjust="spacing" textLength="158.1494" x="1935.01" y="557.342">+Calculate(...) : object</text></g><!--link FileProcessingBackgroundService to IKpiCalculator--><g class="link" data-entity-1="ent0004" data-entity-2="ent0010" data-link-type="aggregation" data-source-line="69" id="lnk19"><path codeLine="69" d="M390.74,190.98 C390.74,235.58 390.74,285.64 390.74,285.64 C390.74,285.64 668.28,285.64 887.44,285.64" fill="none" id="FileProcessingBackgroundService-IKpiCalculator" style="stroke:#000000;stroke-width:1;"/><polygon fill="none" points="390.74,178.98,386.74,184.98,390.74,190.98,394.74,184.98,390.74,178.98" style="stroke:#000000;stroke-width:1;"/><polygon fill="#000000" points="893.44,285.64,884.44,281.64,888.44,285.64,884.44,289.64,893.44,285.64" style="stroke:#000000;stroke-width:1;"/><text fill="#000000" font-family="Verdana" font-size="13" lengthAdjust="spacing" textLength="99.9185" x="481.6516" y="266.7069">Injects multiple</text><text fill="#000000" font-family="Verdana" font-size="13" lengthAdjust="spacing" textLength="104.9077" x="475.0246" y="281.8397">via DI Container</text><text fill="#000000" font-family="Verdana" font-size="13" lengthAdjust="spacing" textLength="23.0356" x="862.6608" y="281.0667">0..*</text></g><!--reverse link IKpiCalculator to TotalSkusCalculator--><g class="link" data-entity-1="ent0010" data-entity-2="ent0014" data-link-type="extension" data-source-line="71" id="lnk21"><path codeLine="71" d="M875.7,382.64 C741.73,382.64 622,382.64 622,382.64 C622,382.64 622,445.27 622,487.83" fill="none" id="IKpiCalculator-backto-TotalSkusCalculator" style="stroke:#000000;stroke-width:1;stroke-dasharray:7,7;"/><polygon fill="none" points="893.7,382.64,875.7,376.64,875.7,388.64,893.7,382.64" style="stroke:#000000;stroke-width:1;"/></g><!--reverse link IKpiCalculator to OutOfStockCalculator--><g class="link" data-entity-1="ent0010" data-entity-2="ent0015" data-link-type="extension" data-source-line="72" id="lnk23"><path codeLine="72" d="M1005.29,406.47 C1005.29,438.2 1005.29,459.33 1005.29,487.78" fill="none" id="IKpiCalculator-backto-OutOfStockCalculator" style="stroke:#000000;stroke-width:1;stroke-dasharray:7,7;"/><polygon fill="none" points="1005.29,388.47,999.29,406.47,1011.29,406.47,1005.29,388.47" style="stroke:#000000;stroke-width:1;"/></g><!--reverse link IKpiCalculator to StockValueCalculator--><g class="link" data-entity-1="ent0010" data-entity-2="ent0016" data-link-type="extension" data-source-line="73" id="lnk25"><path codeLine="73" d="M1295.37,406.47 C1295.37,438.2 1295.37,459.33 1295.37,487.78" fill="none" id="IKpiCalculator-backto-StockValueCalculator" style="stroke:#000000;stroke-width:1;stroke-dasharray:7,7;"/><polygon fill="none" points="1295.37,388.47,1289.37,406.47,1301.37,406.47,1295.37,388.47" style="stroke:#000000;stroke-width:1;"/></g><!--reverse link IKpiCalculator to AvgInventoryAgeCalculator--><g class="link" data-entity-1="ent0010" data-entity-2="ent0017" data-link-type="extension" data-source-line="74" id="lnk27"><path codeLine="74" d="M1412.5,384.64 C1551.53,384.64 1678.66,384.64 1678.66,384.64 C1678.66,384.64 1678.66,445.67 1678.66,487.62" fill="none" id="IKpiCalculator-backto-AvgInventoryAgeCalculator" style="stroke:#000000;stroke-width:1;stroke-dasharray:7,7;"/><polygon fill="none" points="1394.5,384.64,1412.5,390.64,1412.5,378.64,1394.5,384.64" style="stroke:#000000;stroke-width:1;"/></g><!--reverse link IKpiCalculator to AvgDailySalesCalculator--><g class="link" data-entity-1="ent0010" data-entity-2="ent0018" data-link-type="extension" data-source-line="75" id="lnk29"><path codeLine="75" d="M1412.48,380.64 C1690.05,380.64 2081,380.64 2081,380.64 C2081,380.64 2081,444.51 2081,487.68" fill="none" id="IKpiCalculator-backto-AvgDailySalesCalculator" style="stroke:#000000;stroke-width:1;stroke-dasharray:7,7;"/><polygon fill="none" points="1394.48,380.64,1412.48,386.64,1412.48,374.64,1394.48,380.64" style="stroke:#000000;stroke-width:1;"/></g><?plantuml-src hPRFRoCr5CVl-IiUmw59QAPT4A949IYR7zfeLysg4pWX8TTnPamyziZsH0gm1zG39mvxGXmGx2uIHq08hSWSE1Jj_p7_2S_JD9r4KvMop25oxFUUl-_vupVpXerOp20HXCkQcNEP44rYe88OqxLMyxFKiX5LCk2VCpWicGWkcLqc39IsaIejI3LbXYLmLBRMHCxTvBt3ycn2w9o4BB1BmK0pQeaC1QlLrlFWZUHC4sDrIcsg6JmYIwOz-A86-6oCxkCWr2gLqmanSmFrdf8cZPbkUF3cu6XuD7ntxUAU8ZKOSi4UQqMPCLo6rn42fXUSCZW-Vg2CPLV_EvrI1FUquDDvmdj4q5GGgxI1Dem6qkrApWGx7ZqihtPsVAzMM5TEJvcSCetcfckMajOR6CdbiN5viXbj1b9P1cVAMXM3cjsMpDRcpUP9bA-UKR3wrQzvzeCCeJxMD69OPIUrqMnksQDrzZtGYz-Xpn8dLT8bZEHdU5XSIQZtHmsWUVOp0VzaCDc7BMU9RZRFVeE_d-RPTxXLY88d-Ugd2VJorNCCYq8k3uJ7YK0IfTsEi5r7iD75ZpA26ADPUCIDXNgfwWr_otUINZoNw8BgmARBFFlQ5aAUSXXZAWSzeGoRmcFD9UMu-xKtvbdKk7PP_oSb8hj98ZWbHVBLEA9YXw33LOMSEWY7W-7xW_TA26q6N5gcPmI9sybq6xUtu8JWDMq3dX8UCU8PCjlfxDXiiAeRIH8JAMkGobD6fcCfbZqbnEMf7ICiKxnIWKNRO6tQsVz40iOdslPnkWtkTy9ZDfxD3BCV5ijOcCf51wqwSr3SYgtcOMGTjTi9xq1wpuVx-Ug5WWKU6qppx1TiE3XC8SG3fErc4_eNVs8bAjBpTsAzxSE3FFiMYS-p5o3ox9l2luTmcdprXxnE-c2T7zHbAaG5KitcEpxqNZq3YfVeBnWIBbg1cbaNRw9HiDFx5SnHwdaAUvSbsIkeEzy6szqeX-QvQwGHH0elfNKIhs8Op1FgoCS-J1dbCH6DxGZEvIKjkz0enJmvU2S7NGyaAdJbMhrCND8uJoDEy4V1OGNgEmroeYmHmJmr_vh93phW5LuGFFp8U3UowVj-9Iux0iQf7Sy2g-ZyJWhGhQLchS8HHfR5hw-aYFKn4Icxav9B2ONVQqleBiAHN61tL7hP3U-cexl0xeYDQHC0CCB_eQYFz2y38fZvJteAToZyxwvcqvZtu9I9eXsRY2UcTjkBNRLQgE7GzvlURijjWmVhLvk1E1NMlHHSrrlWjUcF03yhB7ucCGtWrMfL5yHF4__BpcvdgoIvshGIjMhJcv6uqRxom2gj_m40?></g></svg>