<svg xmlns="http://www.w3.org/2000/svg" xmlns:xlink="http://www.w3.org/1999/xlink" contentStyleType="text/css" data-diagram-type="CLASS" height="1219px" preserveAspectRatio="none" style="width:1666px;height:1219px;background:#FFFFFF;" version="1.1" viewBox="0 0 1666 1219" width="1666px" zoomAndPan="magnify"><?plantuml 1.2026.3beta4?><defs/><g><!--cluster Application Layer - Reporting Engine--><g class="cluster" data-qualified-name="Application Layer - Reporting Engine" data-source-line="9" id="ent0002"><rect fill="#F4F6F6" height="1193.36" rx="2.5" ry="2.5" style="stroke:#000000;stroke-width:1;" width="1640" x="12" y="12"/><text fill="#000000" font-family="Verdana" font-size="14" font-weight="700" lengthAdjust="spacing" textLength="290.6094" x="686.6953" y="31.9951">Application Layer - Reporting Engine</text></g><!--class KpiResultDto--><g class="entity" data-qualified-name="Application Layer - Reporting Engine.KpiResultDto" data-source-line="12" id="ent0003"><rect fill="#FFFFFF" height="155.1563" rx="2.5" ry="2.5" style="stroke:#000000;stroke-width:1;" width="200.1377" x="349.93" y="822.24"/><ellipse cx="370.8274" cy="852.3728" fill="#FF7700" rx="9" ry="9" style="stroke:#000000;stroke-width:1;"/><path d="M372.0305,852.5134 Q372.3899,852.5916 372.6555,852.8728 Q372.9368,853.1384 373.3274,853.9197 L375.5618,858.3728 L372.8743,858.3728 L371.3743,855.2478 Q371.3118,855.1072 371.2024,854.8728 Q370.5462,853.4822 369.6555,853.4822 L368.8743,853.4822 L368.8743,858.3728 L366.4368,858.3728 L366.4368,845.9822 L369.968,845.9822 Q372.3587,845.9822 373.3899,846.8259 Q374.4368,847.6697 374.4368,849.5759 Q374.4368,850.8572 373.8118,851.6228 Q373.2024,852.3728 372.0305,852.5134 Z M368.8743,848.0447 L368.8743,851.4197 L370.0305,851.4197 Q371.0462,851.4197 371.468,851.0291 Q371.9055,850.6228 371.9055,849.7166 Q371.9055,848.8259 371.468,848.4353 Q371.0462,848.0447 370.0305,848.0447 L368.8743,848.0447 Z " fill="#000000"/><text fill="#000000" font-family="Verdana" font-size="12" font-style="italic" lengthAdjust="spacing" textLength="148.5879" x="387.5824" y="843.3787">&#171;readonly record struct&#187;</text><text fill="#000000" font-family="Verdana" font-size="14" lengthAdjust="spacing" textLength="90.6787" x="416.537" y="869.2039">KpiResultDto</text><line style="stroke:#000000;stroke-width:1;" x1="350.93" x2="549.0677" y1="882.5056" y2="882.5056"/><text fill="#000000" font-family="Verdana" font-size="14" lengthAdjust="spacing" textLength="128.7959" x="360.93" y="904.5007">+KpiName : string</text><text fill="#000000" font-family="Verdana" font-size="14" lengthAdjust="spacing" textLength="137.7783" x="360.93" y="930.7976">+RawValue : object</text><text fill="#000000" font-family="Verdana" font-size="14" lengthAdjust="spacing" textLength="178.1377" x="360.93" y="957.0945">+FormattedValue : string</text><line style="stroke:#000000;stroke-width:1;" x1="350.93" x2="549.0677" y1="969.3962" y2="969.3962"/></g><g class="entity" data-qualified-name="Application Layer - Reporting Engine.GMN4" data-source-line="18" id="ent0005"><path d="M27.61,867.12 L27.61,932.5184 A0,0 0 0 0 27.61,932.5184 L250.3917,932.5184 A0,0 0 0 0 250.3917,932.5184 L250.3917,904.36 L349.48,900.36 L250.3917,896.36 L250.3917,877.12 L240.3917,867.12 L27.61,867.12 A0,0 0 0 0 27.61,867.12" fill="#FFFFFF" style="stroke:#000000;stroke-width:1;"/><path d="M240.3917,867.12 L240.3917,877.12 L250.3917,877.12 L240.3917,867.12" fill="#FFFFFF" style="stroke:#000000;stroke-width:1;"/><text fill="#000000" font-family="Verdana" font-size="13" lengthAdjust="spacing" textLength="187.6494" x="38.61" y="889.1869">DTO si&#234;u nh&#7865; &#273;&#7875; v&#7853;n chuy&#7875;n</text><text fill="#000000" font-family="Verdana" font-size="13" lengthAdjust="spacing" textLength="175.5254" x="38.61" y="904.3197">d&#7919; li&#7879;u gi&#7919;a t&#7847;ng T&#237;nh to&#225;n</text><text fill="#000000" font-family="Verdana" font-size="13" lengthAdjust="spacing" textLength="143.3237" x="38.61" y="919.4525">v&#224; t&#7847;ng Xu&#7845;t b&#225;o c&#225;o.</text></g><!--class IKpiReportRenderer--><g class="entity" data-qualified-name="Application Layer - Reporting Engine.IKpiReportRenderer" data-source-line="24" id="ent0007"><rect fill="#FFFFFF" height="78.5938" rx="2.5" ry="2.5" style="stroke:#000000;stroke-width:1;" width="515.377" x="611.31" y="57"/><ellipse cx="791.267" cy="75.1484" fill="#FFFFFF" rx="9" ry="9" style="stroke:#000000;stroke-width:1;"/><path d="M787.1889,70.9141 L787.1889,68.7578 L794.5795,68.7578 L794.5795,70.9141 L792.1108,70.9141 L792.1108,78.9922 L794.5795,78.9922 L794.5795,81.1484 L787.1889,81.1484 L787.1889,78.9922 L789.6577,78.9922 L789.6577,70.9141 L787.1889,70.9141 Z " fill="#000000"/><text fill="#000000" font-family="Verdana" font-size="14" font-style="italic" lengthAdjust="spacing" textLength="137.9629" x="813.767" y="79.9951">IKpiReportRenderer</text><line style="stroke:#000000;stroke-width:1;" x1="612.31" x2="1125.687" y1="93.2969" y2="93.2969"/><line style="stroke:#000000;stroke-width:1;" x1="612.31" x2="1125.687" y1="101.2969" y2="101.2969"/><text fill="#000000" font-family="Verdana" font-size="14" lengthAdjust="spacing" textLength="493.377" x="622.31" y="123.292">+RenderAndExportAsync(results: IEnumerable&lt;KpiResultDto&gt;) : Task</text></g><!--class KpiReportRenderer--><g class="entity" data-qualified-name="Application Layer - Reporting Engine.KpiReportRenderer" data-source-line="28" id="ent0008"><rect fill="#FFFFFF" height="104.8906" rx="2.5" ry="2.5" style="stroke:#000000;stroke-width:1;" width="515.377" x="611.31" y="235.59"/><ellipse cx="793.3315" cy="253.7384" fill="#FFFFFF" rx="9" ry="9" style="stroke:#000000;stroke-width:1;"/><path d="M796.3002,259.3791 Q795.7221,259.6759 795.0815,259.8166 Q794.4409,259.9728 793.7377,259.9728 Q791.2377,259.9728 789.9096,258.3322 Q788.5971,256.6759 788.5971,253.5509 Q788.5971,250.4259 789.9096,248.7697 Q791.2377,247.1134 793.7377,247.1134 Q794.4409,247.1134 795.0815,247.2697 Q795.7377,247.4259 796.3002,247.7228 L796.3002,250.4416 Q795.6752,249.8634 795.0815,249.5978 Q794.4877,249.3166 793.8627,249.3166 Q792.519,249.3166 791.8315,250.3947 Q791.144,251.4572 791.144,253.5509 Q791.144,255.6447 791.8315,256.7228 Q792.519,257.7853 793.8627,257.7853 Q794.4877,257.7853 795.0815,257.5197 Q795.6752,257.2384 796.3002,256.6603 L796.3002,259.3791 Z " fill="#000000"/><text fill="#000000" font-family="Verdana" font-size="14" lengthAdjust="spacing" textLength="133.834" x="815.8315" y="258.5851">KpiReportRenderer</text><line style="stroke:#000000;stroke-width:1;" x1="612.31" x2="1125.687" y1="271.8869" y2="271.8869"/><text fill="#000000" font-family="Verdana" font-size="14" lengthAdjust="spacing" textLength="291.3682" x="622.31" y="293.882">-_exporters : IEnumerable&lt;IKpiExporter&gt;</text><line style="stroke:#000000;stroke-width:1;" x1="612.31" x2="1125.687" y1="306.1837" y2="306.1837"/><text fill="#000000" font-family="Verdana" font-size="14" lengthAdjust="spacing" textLength="493.377" x="622.31" y="328.1789">+RenderAndExportAsync(results: IEnumerable&lt;KpiResultDto&gt;) : Task</text></g><g class="entity" data-qualified-name="Application Layer - Reporting Engine.GMN10" data-source-line="35" id="ent0011"><path d="M1226.23,240.21 L1226.23,284.36 L1126.91,288.36 L1226.23,292.36 L1226.23,335.8741 A0,0 0 0 0 1226.23,335.8741 L1569.7759,335.8741 A0,0 0 0 0 1569.7759,335.8741 L1569.7759,250.21 L1559.7759,240.21 L1226.23,240.21 A0,0 0 0 0 1226.23,240.21" fill="#FFFFFF" style="stroke:#000000;stroke-width:1;"/><path d="M1559.7759,240.21 L1559.7759,250.21 L1569.7759,250.21 L1559.7759,240.21" fill="#FFFFFF" style="stroke:#000000;stroke-width:1;"/><text fill="#000000" font-family="Verdana" font-size="13" font-weight="700" lengthAdjust="spacing" textLength="172.9419" x="1237.23" y="262.2769">Nh&#7841;c tr&#432;&#7903;ng Reporting:</text><text fill="#000000" font-family="Verdana" font-size="13" lengthAdjust="spacing" textLength="279.2969" x="1237.23" y="277.4097">Nh&#7853;n danh s&#225;ch Exporters t&#7915; DI Container.</text><text fill="#000000" font-family="Verdana" font-size="13" lengthAdjust="spacing" textLength="260.3301" x="1237.23" y="292.5425">Duy&#7879;t qua t&#7845;t c&#7843; c&#225;c k&#234;nh xu&#7845;t b&#225;o c&#225;o</text><text fill="#000000" font-family="Verdana" font-size="13" lengthAdjust="spacing" textLength="242.5947" x="1237.23" y="307.6753">v&#224; g&#7885;i th&#7921;c thi (h&#7895; tr&#7907; Task.WhenAll).</text><text fill="#000000" font-family="Verdana" font-size="13" lengthAdjust="spacing" textLength="312.5459" x="1237.23" y="322.8081">Tu&#226;n th&#7911; tuy&#7879;t &#273;&#7889;i Open/Closed Principle (OCP).</text></g><!--class IKpiExporter--><g class="entity" data-qualified-name="Application Layer - Reporting Engine.IKpiExporter" data-source-line="43" id="ent0013"><rect fill="#FFFFFF" height="78.5938" rx="2.5" ry="2.5" style="stroke:#000000;stroke-width:1;" width="437.5703" x="650.21" y="642.49"/><ellipse cx="817.1036" cy="660.6384" fill="#FFFFFF" rx="9" ry="9" style="stroke:#000000;stroke-width:1;"/><path d="M813.0254,656.4041 L813.0254,654.2478 L820.4161,654.2478 L820.4161,656.4041 L817.9473,656.4041 L817.9473,664.4822 L820.4161,664.4822 L820.4161,666.6384 L813.0254,666.6384 L813.0254,664.4822 L815.4942,664.4822 L815.4942,656.4041 L813.0254,656.4041 Z " fill="#000000"/><text fill="#000000" font-family="Verdana" font-size="14" font-style="italic" lengthAdjust="spacing" textLength="86.2832" x="839.6036" y="665.4851">IKpiExporter</text><line style="stroke:#000000;stroke-width:1;" x1="651.21" x2="1086.7803" y1="678.7869" y2="678.7869"/><line style="stroke:#000000;stroke-width:1;" x1="651.21" x2="1086.7803" y1="686.7869" y2="686.7869"/><text fill="#000000" font-family="Verdana" font-size="14" lengthAdjust="spacing" textLength="415.5703" x="661.21" y="708.782">+ExportAsync(results: IEnumerable&lt;KpiResultDto&gt;) : Task</text></g><!--class ConsoleKpiExporter--><g class="entity" data-qualified-name="Application Layer - Reporting Engine.ConsoleKpiExporter" data-source-line="48" id="ent0014"><rect fill="#FFFFFF" height="78.5938" rx="2.5" ry="2.5" style="stroke:#000000;stroke-width:1;" width="437.5703" x="650.21" y="860.52"/><ellipse cx="791.3799" cy="878.6684" fill="#FFFFFF" rx="9" ry="9" style="stroke:#000000;stroke-width:1;"/><path d="M794.3487,884.3091 Q793.7705,884.6059 793.1299,884.7466 Q792.4893,884.9028 791.7862,884.9028 Q789.2862,884.9028 787.958,883.2622 Q786.6455,881.6059 786.6455,878.4809 Q786.6455,875.3559 787.958,873.6997 Q789.2862,872.0434 791.7862,872.0434 Q792.4893,872.0434 793.1299,872.1997 Q793.7862,872.3559 794.3487,872.6528 L794.3487,875.3716 Q793.7237,874.7934 793.1299,874.5278 Q792.5362,874.2466 791.9112,874.2466 Q790.5674,874.2466 789.8799,875.3247 Q789.1924,876.3872 789.1924,878.4809 Q789.1924,880.5747 789.8799,881.6528 Q790.5674,882.7153 791.9112,882.7153 Q792.5362,882.7153 793.1299,882.4497 Q793.7237,882.1684 794.3487,881.5903 L794.3487,884.3091 Z " fill="#000000"/><text fill="#000000" font-family="Verdana" font-size="14" lengthAdjust="spacing" textLength="137.7305" x="813.8799" y="883.5151">ConsoleKpiExporter</text><line style="stroke:#000000;stroke-width:1;" x1="651.21" x2="1086.7803" y1="896.8169" y2="896.8169"/><line style="stroke:#000000;stroke-width:1;" x1="651.21" x2="1086.7803" y1="904.8169" y2="904.8169"/><text fill="#000000" font-family="Verdana" font-size="14" lengthAdjust="spacing" textLength="415.5703" x="661.21" y="926.812">+ExportAsync(results: IEnumerable&lt;KpiResultDto&gt;) : Task</text></g><g class="entity" data-qualified-name="Application Layer - Reporting Engine.GMN15" data-source-line="52" id="ent0016"><path d="M719.55,1086.13 L719.55,1181.7941 A0,0 0 0 0 719.55,1181.7941 L1018.4401,1181.7941 A0,0 0 0 0 1018.4401,1181.7941 L1018.4401,1096.13 L1008.4401,1086.13 L873,1086.13 L869,939.54 L865,1086.13 L719.55,1086.13 A0,0 0 0 0 719.55,1086.13" fill="#FFFFFF" style="stroke:#000000;stroke-width:1;"/><path d="M1008.4401,1086.13 L1008.4401,1096.13 L1018.4401,1096.13 L1008.4401,1086.13" fill="#FFFFFF" style="stroke:#000000;stroke-width:1;"/><text fill="#000000" font-family="Verdana" font-size="13" font-weight="700" lengthAdjust="spacing" textLength="174.1289" x="730.55" y="1108.1969">Atomic Console Output:</text><text fill="#000000" font-family="Verdana" font-size="13" lengthAdjust="spacing" textLength="249.6216" x="730.55" y="1123.3297">S&#7917; d&#7909;ng StringBuilder &#273;&#7875; gom to&#224;n b&#7897;</text><text fill="#000000" font-family="Verdana" font-size="13" lengthAdjust="spacing" textLength="228.4395" x="730.55" y="1138.4625">text b&#225;o c&#225;o r&#7891;i in ra Console b&#7857;ng</text><text fill="#000000" font-family="Verdana" font-size="13" lengthAdjust="spacing" textLength="263.7578" x="730.55" y="1153.5953">&#273;&#250;ng 1 l&#7879;nh duy nh&#7845;t. Ch&#7889;ng hi&#7879;n t&#432;&#7907;ng</text><text fill="#000000" font-family="Verdana" font-size="13" lengthAdjust="spacing" textLength="253.1699" x="730.55" y="1168.7281">"x&#233; r&#225;ch" (Tearing) giao di&#7879;n &#273;a lu&#7891;ng.</text></g><!--class JsonFileKpiExporter--><g class="entity" data-qualified-name="Application Layer - Reporting Engine.JsonFileKpiExporter" data-source-line="59" id="ent0018"><rect fill="#FFFFFF" height="157.4844" rx="2.5" ry="2.5" style="stroke:#000000;stroke-width:1;" width="448.5625" x="1187.72" y="821.08"/><ellipse cx="1335.5208" cy="839.2284" fill="#FFFFFF" rx="9" ry="9" style="stroke:#000000;stroke-width:1;"/><path d="M1338.4895,844.8691 Q1337.9114,845.1659 1337.2708,845.3066 Q1336.6302,845.4628 1335.927,845.4628 Q1333.427,845.4628 1332.0989,843.8222 Q1330.7864,842.1659 1330.7864,839.0409 Q1330.7864,835.9159 1332.0989,834.2597 Q1333.427,832.6034 1335.927,832.6034 Q1336.6302,832.6034 1337.2708,832.7597 Q1337.927,832.9159 1338.4895,833.2128 L1338.4895,835.9316 Q1337.8645,835.3534 1337.2708,835.0878 Q1336.677,834.8066 1336.052,834.8066 Q1334.7083,834.8066 1334.0208,835.8847 Q1333.3333,836.9472 1333.3333,839.0409 Q1333.3333,841.1347 1334.0208,842.2128 Q1334.7083,843.2753 1336.052,843.2753 Q1336.677,843.2753 1337.2708,843.0097 Q1337.8645,842.7284 1338.4895,842.1503 L1338.4895,844.8691 Z " fill="#000000"/><text fill="#000000" font-family="Verdana" font-size="14" lengthAdjust="spacing" textLength="135.4609" x="1358.0208" y="844.0751">JsonFileKpiExporter</text><line style="stroke:#000000;stroke-width:1;" x1="1188.72" x2="1635.2825" y1="857.3769" y2="857.3769"/><text fill="#000000" font-family="Verdana" font-size="14" lengthAdjust="spacing" textLength="176.2852" x="1198.72" y="879.372">-_exportDirectory : string</text><text fill="#000000" font-family="Verdana" font-size="14" lengthAdjust="spacing" text-decoration="underline" textLength="189.875" x="1198.72" y="905.6689">-_fileLock : SemaphoreSlim</text><line style="stroke:#000000;stroke-width:1;" x1="1188.72" x2="1635.2825" y1="917.9706" y2="917.9706"/><text fill="#000000" font-family="Verdana" font-size="14" lengthAdjust="spacing" textLength="426.5625" x="1198.72" y="939.9657">+JsonFileKpiExporter(options: IOptions&lt;ReportingSettings&gt;)</text><text fill="#000000" font-family="Verdana" font-size="14" lengthAdjust="spacing" textLength="415.5703" x="1198.72" y="966.2626">+ExportAsync(results: IEnumerable&lt;KpiResultDto&gt;) : Task</text></g><g class="entity" data-qualified-name="Application Layer - Reporting Engine.GMN19" data-source-line="66" id="ent0020"><path d="M1269.75,1078.56 L1269.75,1189.3569 A0,0 0 0 0 1269.75,1189.3569 L1554.2563,1189.3569 A0,0 0 0 0 1554.2563,1189.3569 L1554.2563,1088.56 L1544.2563,1078.56 L1416,1078.56 L1412,978.76 L1408,1078.56 L1269.75,1078.56 A0,0 0 0 0 1269.75,1078.56" fill="#FFFFFF" style="stroke:#000000;stroke-width:1;"/><path d="M1544.2563,1078.56 L1544.2563,1088.56 L1554.2563,1088.56 L1544.2563,1078.56" fill="#FFFFFF" style="stroke:#000000;stroke-width:1;"/><text fill="#000000" font-family="Verdana" font-size="13" font-weight="700" lengthAdjust="spacing" textLength="150.9282" x="1280.75" y="1100.6269">Thread-Safe File I/O:</text><text fill="#000000" font-family="Verdana" font-size="13" lengthAdjust="spacing" textLength="192.9243" x="1280.75" y="1115.7597">B&#7843;o v&#7879; qu&#225; tr&#236;nh ghi file b&#7857;ng</text><text fill="#000000" font-family="Verdana" font-size="13" lengthAdjust="spacing" textLength="249.374" x="1280.75" y="1130.8925">SemaphoreSlim(1, 1). &#272;&#7843;m b&#7843;o kh&#244;ng</text><text fill="#000000" font-family="Verdana" font-size="13" lengthAdjust="spacing" textLength="239.04" x="1280.75" y="1146.0253">c&#243; 2 chu k&#7923; b&#225;o c&#225;o n&#224;o c&#249;ng ghi &#273;&#232;</text><text fill="#000000" font-family="Verdana" font-size="13" lengthAdjust="spacing" textLength="213.5352" x="1280.75" y="1161.1581">l&#234;n 1 file JSON g&#226;y l&#7895;i Corrupted.</text><text fill="#000000" font-family="Verdana" font-size="13" lengthAdjust="spacing" textLength="243.769" x="1280.75" y="1176.291">(&#272;&#432;&#7901;ng d&#7851;n l&#7845;y &#273;&#7897;ng t&#7915; appsettings).</text></g><!--reverse link IKpiReportRenderer to KpiReportRenderer--><g class="link" data-entity-1="ent0007" data-entity-2="ent0008" data-link-type="extension" data-source-line="32" id="lnk9"><path codeLine="32" d="M869,154.03 C869,182.77 869,203.9 869,235.26" fill="none" id="IKpiReportRenderer-backto-KpiReportRenderer" style="stroke:#000000;stroke-width:1;stroke-dasharray:7,7;"/><polygon fill="none" points="869,136.03,863,154.03,875,154.03,869,136.03" style="stroke:#000000;stroke-width:1;"/></g><!--link KpiReportRenderer to IKpiExporter--><g class="link" data-entity-1="ent0008" data-entity-2="ent0013" data-link-type="aggregation" data-source-line="75" id="lnk22"><path codeLine="75" d="M869,352.73 C869,432.68 869,564.84 869,636.19" fill="none" id="KpiReportRenderer-IKpiExporter" style="stroke:#000000;stroke-width:1;"/><polygon fill="none" points="869,340.73,865,346.73,869,352.73,873,346.73,869,340.73" style="stroke:#000000;stroke-width:1;"/><polygon fill="#000000" points="869,642.19,873,633.19,869,637.19,865,633.19,869,642.19" style="stroke:#000000;stroke-width:1;"/><text fill="#000000" font-family="Verdana" font-size="13" lengthAdjust="spacing" textLength="84.0811" x="758.1357" y="467.5269">Injects via DI</text><text fill="#000000" font-family="Verdana" font-size="13" lengthAdjust="spacing" textLength="117.5586" x="737.2646" y="482.6597">(Strategy Pattern)</text><text fill="#000000" font-family="Verdana" font-size="13" lengthAdjust="spacing" textLength="23.0356" x="838.4769" y="626.2897">0..*</text></g><!--reverse link IKpiExporter to ConsoleKpiExporter--><g class="link" data-entity-1="ent0013" data-entity-2="ent0014" data-link-type="extension" data-source-line="77" id="lnk24"><path codeLine="77" d="M869,739.52 C869,778.95 869,821.02 869,860.36" fill="none" id="IKpiExporter-backto-ConsoleKpiExporter" style="stroke:#000000;stroke-width:1;stroke-dasharray:7,7;"/><polygon fill="none" points="869,721.52,863,739.52,875,739.52,869,721.52" style="stroke:#000000;stroke-width:1;"/></g><!--reverse link IKpiExporter to JsonFileKpiExporter--><g class="link" data-entity-1="ent0013" data-entity-2="ent0018" data-link-type="extension" data-source-line="78" id="lnk26"><path codeLine="78" d="M1105.82,682.36 C1170.79,682.36 1206.97,682.36 1206.97,682.36 C1206.97,682.36 1206.97,758.52 1206.97,820.7" fill="none" id="IKpiExporter-backto-JsonFileKpiExporter" style="stroke:#000000;stroke-width:1;stroke-dasharray:7,7;"/><polygon fill="none" points="1087.82,682.36,1105.82,688.36,1105.82,676.36,1087.82,682.36" style="stroke:#000000;stroke-width:1;"/></g><!--link IKpiExporter to KpiResultDto--><g class="link" data-entity-1="ent0013" data-entity-2="ent0003" data-link-type="dependency" data-source-line="80" id="lnk27"><path codeLine="80" d="M649.99,682.36 C548.5,682.36 450,682.36 450,682.36 C450,682.36 450,753.53 450,815.93" fill="none" id="IKpiExporter-to-KpiResultDto" style="stroke:#000000;stroke-width:1;stroke-dasharray:7,7;"/><polygon fill="#000000" points="450,821.93,454,812.93,450,816.93,446,812.93,450,821.93" style="stroke:#000000;stroke-width:1;"/><text fill="#000000" font-family="Verdana" font-size="13" lengthAdjust="spacing" textLength="31.0591" x="435.4746" y="673.4269">Uses</text></g><?plantuml-src jLPDRzj64BthLqpLGoGtOkmqJG334A3O5g0qi0nB_JWK25RaYjoAscLtbuxPnASUV2eGeuSWXw9s32DjKYCDqal48ut-3_wJpb8IHLdogOqE5CLzE_Cqy_ODFz4U7L88VC9uIGqO3uWaGx1zebH3QybweQOjM_0E-v72QW7YCqvr550GKdkYiC25GnKDO6sr29U43nQV1iGU49TsTEHJaDJMXBi-BG1sYUCmxi8NfT842-L64FZC9fe93Wz9H2NKO8y6oCCWjxcBpChmQVDEysxpBZmfbG0_Ds3DWYsY2NIHYkhZhdRlUyoOhMR_5xuCs1vLeQ-tj82D3QZitSGmpNltLbUho8uuWlkHeIca0qhBqDPGhsC6c7m-Co5s21PqtQmZdSBI7ddyDV53ioPccSThJI67H6lgJ165tOVPbGjDmQTz3Q8_HpIFijLjWsB9wn2ubuu-mELn6ly4--deWeFjXH7-uf2ZdJH-YprCuwCGNFnwIq2derTOm6vomJtG8ZajmFUJa-dwjs4wEjVGIqu5s7YnCX3bJiPnMktR5lQ4ErHYeIixIEZK1Yt_-IkDV-DkDGCnhgdi4vj2A_j3feFvdc9HnmyRtDa-C9Y6YhXTaLa1r3gqjdauf9BqVBfHB4ozYdNi4ZMOLF5gewz9LuD7D4j3fOBvw8RczcIj_h_pCzSbXTXuQbcBX4ipKKZcUZDLp86c55TMhdPWTc3MLrPod46XMXo20b39gUt1TbuAdSPlOAi5cu9hD0ighPdoZBYEDFmGPY92STZfwCo8muP1yXg37LpHp9okt3J-cO7sqlWTClGOLF3sEN9DuxEiGDOt7kKDtw_EKdR3v2NFzhm2FKbl17_Ce1rGVclJ5uewi8kdo6O1cakblRbRNIxLpoteUXGwMX9DtGXQKrqkKUcq7dFw_E-ol05tB5DPMrATCs5K5JIBgqhuzADmoBNK4rgBeH7JOhg2cXe8OlOK0-rG1w4k2gcJnXV6OivHQPtCokw7p4THJbp9nIJeC2SSUcdyOcOpcXuKL0AeW5yOTW2dHvwibuxUOTHyo-LnCiBVQ-2Z251gJXXb1dYkiQAeZsDSz8pFeLoC-C-Acyi7oHyWZTBBKEbIOfXMqG-906Uyv_AOW1yY3-ukKy-uDm-Ku4rsNNDoHzbYPiG96IsEXneyKHf7cdq8Z_eOwQ6m1uZgq249F25fnsV3GhUN9Ao8m4n4q_Ns-6uZF-CTgisNgbS_ecAMS2f8fkkP0Lhha3u5WuBMhNPHCVVHCGHEg_W8RIGvnTEV_8dTTD4EJ3qMsZvNcShQJLYhMd3v3ACC3HPZ3Rpax-8EEtaFjyqaX44Qlo-eZ2Sdvku3Waqw5DJlirq--XUAA-FmeDFU0JTv6HcjFMSeIId30AVsp9Sgby-Co7x5M4uwUiCHEJgFCjM_m6UPYP8WK9E6NED8UzJFNc-KnuAn1opE1L6hEU8nhzNgK5wrh9Nol3-jGnd72JVl6Ghs6K7h_euZlzpbTitxXkHLF0HPXkoon6IiCB2UrkU2Pz1bchyEcy-s6TAgpxzkPNo_KbGPFeV_0W00?></g></svg>